# This file uses centimeters as units for non-parametric coordinates.

mtllib 3.mtl
v -0.239770 0.149046 0.017705
v -0.347495 -0.158516 0.081737
v -0.253836 -0.008980 0.241924
v -0.305185 -0.153116 0.235291
v -0.103312 -0.179219 0.455807
v -0.076859 0.222606 0.259423
v 0.099166 0.001894 0.481236
v 0.121521 0.162166 0.360466
v 0.201637 0.229514 0.285469
v 0.339196 0.170169 0.258352
v 0.212040 0.404623 0.075803
v 0.099465 0.351875 0.162364
v -0.163041 0.294291 -0.178713
v -0.113716 0.382632 -0.059252
v -0.229551 0.148596 -0.080280
v 0.194314 -0.211544 0.488468
v 0.125342 -0.085996 0.514846
v 0.052015 -0.272457 0.473897
v -0.029542 -0.082665 0.484759
v -0.192884 -0.371131 0.336533
v -0.033841 -0.414329 0.368744
v -0.130079 -0.299376 0.417459
v 0.296476 -0.310998 0.344103
v 0.389667 -0.119280 0.411088
v 0.086711 -0.445489 0.328400
v 0.297753 -0.001693 0.462420
v 0.437481 -0.003376 0.293958
v -0.035995 -0.521284 0.183604
v -0.099079 -0.496119 -0.022943
v 0.196657 -0.544654 0.056793
v -0.203671 -0.452563 0.160272
v -0.301028 -0.345172 0.162160
v -0.304308 -0.338001 -0.016148
v 0.132264 -0.479021 -0.150085
v -0.044461 -0.443317 -0.160073
v -0.211932 -0.352376 -0.144986
v -0.306096 -0.231267 -0.118008
v -0.083565 -0.303869 -0.286699
v 0.233805 -0.333544 -0.217911
v 0.321163 -0.458120 -0.065651
v 0.394442 -0.340745 -0.091316
v 0.380453 -0.422102 0.120689
v 0.083483 0.491468 -0.246472
v -0.044344 0.469325 -0.163042
v 0.121913 0.514531 -0.140141
v -0.120709 0.274559 -0.291579
v -0.020749 0.412845 -0.297990
v 0.244171 0.445299 -0.061190
v 0.238091 0.443437 -0.204854
v 0.327246 0.297741 -0.060827
v -0.040242 0.391128 0.062318
v 0.309045 0.327159 0.070431
v 0.116969 0.424423 -0.331011
v 0.016109 0.299951 -0.373616
v 0.495642 -0.241587 0.094892
v 0.454671 -0.349537 0.112938
v 0.453530 -0.156280 -0.008722
v 0.460191 -0.069586 0.070958
v 0.511112 -0.156395 0.188840
v 0.476828 -0.173921 0.307974
v 0.374560 0.090099 0.057095
v 0.131159 -0.226949 -0.293588
v 0.093272 -0.392067 -0.249925
v 0.043679 0.064472 -0.330532
v 0.238990 0.257328 -0.280038
v 0.342773 0.173066 -0.000121
v 0.310470 0.064775 -0.176156
v 0.268167 0.350438 -0.240305
v 0.319933 -0.185856 -0.182566
v -0.194419 -0.023894 -0.246183
v -0.299256 -0.044434 -0.063954
v -0.086267 0.023469 -0.337839
v -0.155545 -0.173262 -0.312494
v -0.002765 -0.137510 -0.330496
v -0.042163 -0.256950 -0.324437
v -0.168256 0.221220 0.138057
v 0.389480 -0.197944 -0.126481
v 0.166419 0.105653 -0.284766
vt 0.517938 0.204999
vt 0.679835 0.259386
vt 0.581463 0.332023
vt 0.660214 0.337417
vt 0.039194 0.675741
vt 0.474569 0.807533
vt 0.460486 0.649463
vt 0.518701 0.715148
vt 0.572382 0.730711
vt 0.696929 0.767861
vt 0.644541 0.824683
vt 0.579436 0.818422
vt 0.444299 0.094364
vt 0.384753 0.151410
vt 0.522765 0.153407
vt 0.159020 0.778016
vt 0.089420 0.807858
vt 0.128003 0.705296
vt 0.558949 0.507604
vt 0.749654 0.439772
vt 0.164295 0.610409
vt 0.696011 0.483391
vt 0.263365 0.759999
vt 0.229350 0.870910
vt 0.226573 0.637433
vt 0.534776 0.601262
vt 0.635826 0.681020
vt 0.391289 0.383338
vt 0.279564 0.399897
vt 0.335820 0.244624
vt 0.355759 0.476002
vt 0.766647 0.326084
vt 0.781724 0.226566
vt 0.220658 0.279467
vt 0.205528 0.369867
vt 0.186583 0.466472
vt 0.732134 0.160318
vt 0.109688 0.395247
vt 0.880513 0.408918
vt 0.251625 0.180883
vt 0.774404 0.433452
vt 0.398250 0.723913
vt 0.095722 0.138139
vt 0.331946 0.089501
vt 0.679308 0.931679
vt 0.451869 0.029931
vt 0.137669 0.197977
vt 0.695753 0.861924
vt 0.983229 0.813346
vt 0.876917 0.763784
vt 0.557055 0.892993
vt 0.820440 0.805869
vt 0.151981 0.121533
vt 0.908970 0.308270
vt 0.681807 0.517653
vt 0.412181 0.781119
vt 0.751214 0.543962
vt 0.726459 0.599758
vt 0.363018 0.891961
vt 0.303658 0.868958
vt 0.776105 0.682231
vt 0.960561 0.444459
vt 0.153020 0.299405
vt 0.864822 0.191968
vt 0.989235 0.703968
vt 0.823098 0.713028
vt 0.894533 0.626393
vt 0.979558 0.758077
vt 0.856720 0.497958
vt 0.013869 0.532383
vt 0.628732 0.176204
vt 0.928252 0.155818
vt 0.053661 0.452801
vt 0.865678 0.082570
vt 0.871518 0.016313
vt 0.460500 0.266028
vt 0.809745 0.501483
vt 0.801308 0.228577
vt 0.992764 0.617010
vt 0.189665 0.015248
vt 0.783922 0.051901
vt 0.134305 0.021441
vt 0.088393 0.051976
vt 0.913333 0.844774
vt 0.675205 0.780235
vt 0.058033 0.209374
vt 0.349748 0.219279
vt 0.428256 0.341650
vt 0.624981 0.489595
vt 0.393390 0.657920
vt 0.158609 0.542476
vt 0.617687 0.065287
vt 0.987486 0.280777
vt 0.141482 0.217562
vt 0.271021 0.015248
vt 0.648372 0.576468
vt 0.266437 0.954781
vt 0.207122 0.123151
vt 0.621208 0.684745
vt 0.360977 0.015248
vt 0.242081 0.531379
vt 0.101646 0.548661
vt 0.339922 0.550438
vt 0.080341 0.615924
vt 0.781827 0.317267
vt 0.066279 0.275362
vt 0.075680 0.375963
vt 0.875088 0.386665
vt 0.013869 0.035307
vt 0.618927 0.979077
vt 0.028327 0.744637
vt 0.940643 0.045447
vt 0.995927 0.115293
vt 0.950911 0.367278
vt 0.039677 0.116770
vt 0.631473 0.595871
vt 0.151587 0.903025
vt 0.445375 0.609547
vt 0.331464 0.116437
vt 0.382703 0.597057
vt 0.416878 0.846532
vt 0.306946 0.065654
vt 0.449051 0.517848
vt 0.249300 0.533541
vn -0.911834 0.360313 0.196807
vn -0.911834 0.360313 0.196807
vn -0.911834 0.360313 0.196807
vn -0.706267 0.220690 0.672669
vn -0.706267 0.220690 0.672669
vn -0.706267 0.220690 0.672669
vn -0.205994 0.607081 0.767476
vn -0.205994 0.607081 0.767476
vn -0.205994 0.607081 0.767476
vn 0.414320 0.688334 0.595429
vn 0.414320 0.688334 0.595429
vn 0.414320 0.688334 0.595429
vn 0.136598 0.756989 0.638991
vn 0.136598 0.756989 0.638991
vn 0.136598 0.756989 0.638991
vn -0.878624 0.477413 0.009800
vn -0.878624 0.477413 0.009800
vn -0.878624 0.477413 0.009800
vn -0.928737 0.357414 -0.098504
vn -0.928737 0.357414 -0.098504
vn -0.928737 0.357414 -0.098504
vn -0.009900 -0.210796 0.977480
vn -0.009900 -0.210796 0.977480
vn -0.009900 -0.210796 0.977480
vn -0.191701 -0.138000 0.971703
vn -0.191701 -0.138000 0.971703
vn -0.191701 -0.138000 0.971703
vn -0.310004 -0.579108 0.754010
vn -0.310004 -0.579108 0.754010
vn -0.310004 -0.579108 0.754010
vn -0.184804 -0.510610 0.839717
vn -0.184804 -0.510610 0.839717
vn -0.184804 -0.510610 0.839717
vn -0.175195 0.305691 0.935874
vn -0.175195 0.305691 0.935874
vn -0.175195 0.305691 0.935874
vn -0.739612 -0.049501 0.671211
vn -0.739612 -0.049501 0.671211
vn -0.739612 -0.049501 0.671211
vn -0.750698 -0.082300 0.655499
vn -0.750698 -0.082300 0.655499
vn -0.750698 -0.082300 0.655499
vn 0.511785 -0.494285 0.702679
vn 0.511785 -0.494285 0.702679
vn 0.511785 -0.494285 0.702679
vn 0.354802 -0.633604 0.687504
vn 0.354802 -0.633604 0.687504
vn 0.354802 -0.633604 0.687504
vn 0.305212 -0.032301 0.951737
vn 0.305212 -0.032301 0.951737
vn 0.305212 -0.032301 0.951737
vn 0.094103 0.379910 0.920224
vn 0.094103 0.379910 0.920224
vn 0.094103 0.379910 0.920224
vn 0.086601 0.591809 0.801413
vn 0.086601 0.591809 0.801413
vn 0.086601 0.591809 0.801413
vn 0.733517 0.309107 0.605314
vn 0.733517 0.309107 0.605314
vn 0.733517 0.309107 0.605314
vn 0.671807 0.493705 0.552206
vn 0.671807 0.493705 0.552206
vn 0.671807 0.493705 0.552206
vn 0.408080 0.655768 0.635169
vn 0.408080 0.655768 0.635169
vn 0.408080 0.655768 0.635169
vn -0.141196 -0.986975 -0.077098
vn -0.141196 -0.986975 -0.077098
vn -0.141196 -0.986975 -0.077098
vn -0.740891 -0.671492 -0.013400
vn -0.740891 -0.671492 -0.013400
vn -0.740891 -0.671492 -0.013400
vn -0.605718 -0.779323 -0.160505
vn -0.605718 -0.779323 -0.160505
vn -0.605718 -0.779323 -0.160505
vn -0.319007 -0.819018 0.476911
vn -0.319007 -0.819018 0.476911
vn -0.319007 -0.819018 0.476911
vn -0.694793 -0.635794 0.336197
vn -0.694793 -0.635794 0.336197
vn -0.694793 -0.635794 0.336197
vn -0.158405 -0.898629 -0.409113
vn -0.158405 -0.898629 -0.409113
vn -0.158405 -0.898629 -0.409113
vn -0.582092 -0.741090 -0.334596
vn -0.582092 -0.741090 -0.334596
vn -0.582092 -0.741090 -0.334596
vn -0.453227 -0.756345 -0.471728
vn -0.453227 -0.756345 -0.471728
vn -0.453227 -0.756345 -0.471728
vn -0.741428 -0.469718 -0.479218
vn -0.741428 -0.469718 -0.479218
vn -0.741428 -0.469718 -0.479218
vn -0.419823 -0.671837 -0.610233
vn -0.419823 -0.671837 -0.610233
vn -0.419823 -0.671837 -0.610233
vn 0.381713 -0.595920 -0.706523
vn 0.381713 -0.595920 -0.706523
vn 0.381713 -0.595920 -0.706523
vn 0.528626 -0.482724 -0.698235
vn 0.528626 -0.482724 -0.698235
vn 0.528626 -0.482724 -0.698235
vn 0.115998 -0.916982 0.381692
vn 0.115998 -0.916982 0.381692
vn 0.115998 -0.916982 0.381692
vn 0.430611 -0.733119 0.526414
vn 0.430611 -0.733119 0.526414
vn 0.430611 -0.733119 0.526414
vn -0.245013 0.962052 -0.120106
vn -0.245013 0.962052 -0.120106
vn -0.245013 0.962052 -0.120106
vn -0.764531 0.536021 -0.358014
vn -0.764531 0.536021 -0.358014
vn -0.764531 0.536021 -0.358014
vn 0.508400 0.860500 -0.032700
vn 0.508400 0.860500 -0.032700
vn 0.508400 0.860500 -0.032700
vn 0.870596 0.490098 -0.043200
vn 0.870596 0.490098 -0.043200
vn 0.870596 0.490098 -0.043200
vn -0.071703 0.890439 0.449420
vn -0.071703 0.890439 0.449420
vn -0.071703 0.890439 0.449420
vn 0.565520 0.675324 0.473417
vn 0.565520 0.675324 0.473417
vn 0.565520 0.675324 0.473417
vn 0.375513 0.792827 -0.480016
vn 0.375513 0.792827 -0.480016
vn 0.375513 0.792827 -0.480016
vn -0.242299 0.484098 -0.840797
vn -0.242299 0.484098 -0.840797
vn -0.242299 0.484098 -0.840797
vn 0.882215 -0.381106 -0.276505
vn 0.882215 -0.381106 -0.276505
vn 0.882215 -0.381106 -0.276505
vn 0.692387 -0.716886 -0.081698
vn 0.692387 -0.716886 -0.081698
vn 0.692387 -0.716886 -0.081698
vn 0.793301 -0.551601 -0.257700
vn 0.793301 -0.551601 -0.257700
vn 0.793301 -0.551601 -0.257700
vn 0.894414 -0.090401 -0.438007
vn 0.894414 -0.090401 -0.438007
vn 0.894414 -0.090401 -0.438007
vn 0.887515 0.458508 -0.045701
vn 0.887515 0.458508 -0.045701
vn 0.887515 0.458508 -0.045701
vn 0.799931 0.230109 0.554221
vn 0.799931 0.230109 0.554221
vn 0.799931 0.230109 0.554221
vn 0.872924 0.486213 -0.040001
vn 0.872924 0.486213 -0.040001
vn 0.872924 0.486213 -0.040001
vn 0.932819 -0.329707 0.145403
vn 0.932819 -0.329707 0.145403
vn 0.932819 -0.329707 0.145403
vn 0.332590 -0.311691 -0.890074
vn 0.332590 -0.311691 -0.890074
vn 0.332590 -0.311691 -0.890074
vn 0.363411 -0.126304 -0.923028
vn 0.363411 -0.126304 -0.923028
vn 0.363411 -0.126304 -0.923028
vn 0.945305 0.170301 -0.278201
vn 0.945305 0.170301 -0.278201
vn 0.945305 0.170301 -0.278201
vn 0.789302 0.381501 -0.481101
vn 0.789302 0.381501 -0.481101
vn 0.789302 0.381501 -0.481101
vn 0.968076 0.090898 -0.233594
vn 0.968076 0.090898 -0.233594
vn 0.968076 0.090898 -0.233594
vn 0.945611 -0.039400 -0.322904
vn 0.945611 -0.039400 -0.322904
vn 0.945611 -0.039400 -0.322904
vn 0.520574 -0.100695 -0.847858
vn 0.520574 -0.100695 -0.847858
vn 0.520574 -0.100695 -0.847858
vn 0.788303 0.045500 -0.613602
vn 0.788303 0.045500 -0.613602
vn 0.788303 0.045500 -0.613602
vn 0.605623 -0.167006 -0.778029
vn 0.605623 -0.167006 -0.778029
vn 0.605623 -0.167006 -0.778029
vn -0.847909 0.267503 -0.457705
vn -0.847909 0.267503 -0.457705
vn -0.847909 0.267503 -0.457705
vn -0.945943 0.317914 -0.064203
vn -0.945943 0.317914 -0.064203
vn -0.945943 0.317914 -0.064203
vn -0.971182 -0.238196 0.008300
vn -0.971182 -0.238196 0.008300
vn -0.971182 -0.238196 0.008300
vn -0.977016 -0.155503 -0.145802
vn -0.977016 -0.155503 -0.145802
vn -0.977016 -0.155503 -0.145802
vn -0.955699 -0.122600 0.267600
vn -0.955699 -0.122600 0.267600
vn -0.955699 -0.122600 0.267600
vn -0.913616 0.169403 -0.369606
vn -0.913616 0.169403 -0.369606
vn -0.913616 0.169403 -0.369606
vn -0.657987 0.048199 -0.751485
vn -0.657987 0.048199 -0.751485
vn -0.657987 0.048199 -0.751485
vn -0.523899 0.084300 -0.847599
vn -0.523899 0.084300 -0.847599
vn -0.523899 0.084300 -0.847599
vn -0.797775 0.058798 -0.600081
vn -0.797775 0.058798 -0.600081
vn -0.797775 0.058798 -0.600081
vn -0.094703 -0.094303 -0.991029
vn -0.094703 -0.094303 -0.991029
vn -0.094703 -0.094303 -0.991029
vn -0.114099 -0.012800 -0.993387
vn -0.114099 -0.012800 -0.993387
vn -0.114099 -0.012800 -0.993387
vn -0.362298 -0.368798 -0.855995
vn -0.362298 -0.368798 -0.855995
vn -0.362298 -0.368798 -0.855995
vn -0.697405 0.493703 0.519503
vn -0.697405 0.493703 0.519503
vn -0.697405 0.493703 0.519503
vn -0.864201 0.435201 0.252500
vn -0.864201 0.435201 0.252500
vn -0.864201 0.435201 0.252500
vn -0.604505 0.410304 0.682806
vn -0.604505 0.410304 0.682806
vn -0.604505 0.410304 0.682806
vn -0.656396 0.292998 0.695195
vn -0.656396 0.292998 0.695195
vn -0.656396 0.292998 0.695195
vn -0.917521 0.315807 0.241705
vn -0.917521 0.315807 0.241705
vn -0.917521 0.315807 0.241705
vn -0.605999 0.656699 0.448900
vn -0.605999 0.656699 0.448900
vn -0.605999 0.656699 0.448900
vn -0.222514 0.761048 0.609339
vn -0.222514 0.761048 0.609339
vn -0.222514 0.761048 0.609339
vn -0.325612 0.528319 0.784128
vn -0.325612 0.528319 0.784128
vn -0.325612 0.528319 0.784128
vn -0.077301 0.781412 0.619209
vn -0.077301 0.781412 0.619209
vn -0.077301 0.781412 0.619209
vn -0.085602 0.670214 0.737215
vn -0.085602 0.670214 0.737215
vn -0.085602 0.670214 0.737215
vn -0.663716 0.658316 0.355108
vn -0.663716 0.658316 0.355108
vn -0.663716 0.658316 0.355108
vn -0.836764 0.513878 0.189092
vn -0.836764 0.513878 0.189092
vn -0.836764 0.513878 0.189092
vn -0.197195 -0.140296 0.970274
vn -0.197195 -0.140296 0.970274
vn -0.197195 -0.140296 0.970274
vn -0.254401 -0.242101 0.936305
vn -0.254401 -0.242101 0.936305
vn -0.254401 -0.242101 0.936305
vn 0.095400 -0.629402 0.771202
vn 0.095400 -0.629402 0.771202
vn 0.095400 -0.629402 0.771202
vn 0.182708 -0.611028 0.770235
vn 0.182708 -0.611028 0.770235
vn 0.182708 -0.611028 0.770235
vn 0.401191 -0.084598 0.912080
vn 0.401191 -0.084598 0.912080
vn 0.401191 -0.084598 0.912080
vn 0.162610 0.641438 0.749744
vn 0.162610 0.641438 0.749744
vn 0.162610 0.641438 0.749744
vn -0.379616 -0.925139 0.003200
vn -0.379616 -0.925139 0.003200
vn -0.379616 -0.925139 0.003200
vn -0.056103 -0.864248 0.499928
vn -0.056103 -0.864248 0.499928
vn -0.056103 -0.864248 0.499928
vn -0.394393 -0.824786 0.405193
vn -0.394393 -0.824786 0.405193
vn -0.394393 -0.824786 0.405193
vn -0.845005 -0.206201 0.493403
vn -0.845005 -0.206201 0.493403
vn -0.845005 -0.206201 0.493403
vn -0.198506 -0.688822 -0.697223
vn -0.198506 -0.688822 -0.697223
vn -0.198506 -0.688822 -0.697223
vn -0.082103 -0.957034 -0.278110
vn -0.082103 -0.957034 -0.278110
vn -0.082103 -0.957034 -0.278110
vn 0.261996 -0.893385 -0.364994
vn 0.261996 -0.893385 -0.364994
vn 0.261996 -0.893385 -0.364994
vn 0.558922 -0.829033 -0.017601
vn 0.558922 -0.829033 -0.017601
vn 0.558922 -0.829033 -0.017601
vn -0.120503 -0.771418 -0.624815
vn -0.120503 -0.771418 -0.624815
vn -0.120503 -0.771418 -0.624815
vn 0.407502 -0.603802 -0.685103
vn 0.407502 -0.603802 -0.685103
vn 0.407502 -0.603802 -0.685103
vn 0.382110 -0.807422 0.449512
vn 0.382110 -0.807422 0.449512
vn 0.382110 -0.807422 0.449512
vn -0.289299 0.902698 0.318499
vn -0.289299 0.902698 0.318499
vn -0.289299 0.902698 0.318499
vn -0.556096 0.781995 0.281498
vn -0.556096 0.781995 0.281498
vn -0.556096 0.781995 0.281498
vn -0.410009 0.813619 -0.412210
vn -0.410009 0.813619 -0.412210
vn -0.410009 0.813619 -0.412210
vn -0.750724 0.542818 -0.376512
vn -0.750724 0.542818 -0.376512
vn -0.750724 0.542818 -0.376512
vn -0.821884 0.564289 -0.077999
vn -0.821884 0.564289 -0.077999
vn -0.821884 0.564289 -0.077999
vn 0.291495 0.896183 0.334494
vn 0.291495 0.896183 0.334494
vn 0.291495 0.896183 0.334494
vn 0.871313 0.490607 0.010900
vn 0.871313 0.490607 0.010900
vn 0.871313 0.490607 0.010900
vn -0.072304 0.876346 0.476225
vn -0.072304 0.876346 0.476225
vn -0.072304 0.876346 0.476225
vn 0.595523 0.721227 0.353813
vn 0.595523 0.721227 0.353813
vn 0.595523 0.721227 0.353813
vn 0.358514 0.877034 -0.319812
vn 0.358514 0.877034 -0.319812
vn 0.358514 0.877034 -0.319812
vn -0.218408 0.720626 -0.658024
vn -0.218408 0.720626 -0.658024
vn -0.218408 0.720626 -0.658024
vn 0.610818 0.446713 -0.653719
vn 0.610818 0.446713 -0.653719
vn 0.610818 0.446713 -0.653719
vn 0.910094 0.367397 -0.191699
vn 0.910094 0.367397 -0.191699
vn 0.910094 0.367397 -0.191699
vn 0.566065 0.167090 -0.807250
vn 0.566065 0.167090 -0.807250
vn 0.566065 0.167090 -0.807250
vn 0.387404 0.001700 -0.921909
vn 0.387404 0.001700 -0.921909
vn 0.387404 0.001700 -0.921909
vn 0.953473 0.160995 -0.254893
vn 0.953473 0.160995 -0.254893
vn 0.953473 0.160995 -0.254893
vn 0.887310 -0.081001 -0.454005
vn 0.887310 -0.081001 -0.454005
vn 0.887310 -0.081001 -0.454005
vn 0.943264 0.153394 -0.294489
vn 0.943264 0.153394 -0.294489
vn 0.943264 0.153394 -0.294489
vn 0.923569 0.237792 0.300790
vn 0.923569 0.237792 0.300790
vn 0.923569 0.237792 0.300790
vn 0.881985 0.468692 -0.049299
vn 0.881985 0.468692 -0.049299
vn 0.881985 0.468692 -0.049299
vn 0.912738 -0.349715 0.211209
vn 0.912738 -0.349715 0.211209
vn 0.912738 -0.349715 0.211209
vn 0.516297 -0.495097 0.698796
vn 0.516297 -0.495097 0.698796
vn 0.516297 -0.495097 0.698796
vn 0.111198 -0.392092 -0.913181
vn 0.111198 -0.392092 -0.913181
vn 0.111198 -0.392092 -0.913181
vn 0.111198 -0.392092 -0.913181
vn 0.584018 -0.635120 0.505516
vn 0.584018 -0.635120 0.505516
vn 0.584018 -0.635120 0.505516
vn 0.623098 -0.581298 0.523298
vn 0.623098 -0.581298 0.523298
vn 0.623098 -0.581298 0.523298
vn 0.264191 -0.002400 -0.964467
vn 0.264191 -0.002400 -0.964467
vn 0.264191 -0.002400 -0.964467
vn 0.373305 -0.086001 -0.923714
vn 0.373305 -0.086001 -0.923714
vn 0.373305 -0.086001 -0.923714
vn 0.193107 -0.113104 -0.974637
vn 0.193107 -0.113104 -0.974637
vn 0.193107 -0.113104 -0.974637
vn 0.593928 -0.041702 -0.803437
vn 0.593928 -0.041702 -0.803437
vn 0.593928 -0.041702 -0.803437
vn 0.815911 -0.009000 -0.578108
vn 0.815911 -0.009000 -0.578108
vn 0.815911 -0.009000 -0.578108
vn 0.541993 -0.234197 -0.807090
vn 0.541993 -0.234197 -0.807090
vn 0.541993 -0.234197 -0.807090
vn 0.391308 -0.159003 -0.906419
vn 0.391308 -0.159003 -0.906419
vn 0.391308 -0.159003 -0.906419
vn 0.888697 0.360499 -0.283299
vn 0.888697 0.360499 -0.283299
vn 0.888697 0.360499 -0.283299
vn 0.980604 0.169801 0.097900
vn 0.980604 0.169801 0.097900
vn 0.980604 0.169801 0.097900
vn 0.978231 0.206907 0.015901
vn 0.978231 0.206907 0.015901
vn 0.978231 0.206907 0.015901
vn 0.929709 0.367903 0.017000
vn 0.929709 0.367903 0.017000
vn 0.929709 0.367903 0.017000
vn 0.499905 0.041000 -0.865109
vn 0.499905 0.041000 -0.865109
vn 0.499905 0.041000 -0.865109
vn 0.538517 0.658420 -0.525816
vn 0.538517 0.658420 -0.525816
vn 0.538517 0.658420 -0.525816
vn 0.600222 -0.171506 -0.781229
vn 0.600222 -0.171506 -0.781229
vn 0.600222 -0.171506 -0.781229
vn -0.862388 0.169598 -0.476994
vn -0.862388 0.169598 -0.476994
vn -0.862388 0.169598 -0.476994
vn -0.965633 0.104204 -0.238108
vn -0.965633 0.104204 -0.238108
vn -0.965633 0.104204 -0.238108
vn -0.913442 0.165908 -0.371617
vn -0.913442 0.165908 -0.371617
vn -0.913442 0.165908 -0.371617
vn -0.938562 0.330487 -0.099396
vn -0.938562 0.330487 -0.099396
vn -0.938562 0.330487 -0.099396
vn -0.528889 0.346393 -0.774783
vn -0.528889 0.346393 -0.774783
vn -0.528889 0.346393 -0.774783
vn 0.107701 -0.166701 -0.980108
vn 0.107701 -0.166701 -0.980108
vn 0.107701 -0.166701 -0.980108
vn -0.675904 0.144901 -0.722605
vn -0.675904 0.144901 -0.722605
vn -0.675904 0.144901 -0.722605
vn -0.672400 -0.381500 -0.634300
vn -0.672400 -0.381500 -0.634300
vn -0.672400 -0.381500 -0.634300
vn 0.060598 -0.014099 -0.998063
vn 0.060598 -0.014099 -0.998063
vn 0.060598 -0.014099 -0.998063
vn -0.578233 -0.452726 -0.678739
vn -0.578233 -0.452726 -0.678739
vn -0.578233 -0.452726 -0.678739
s off
usemtl lambert4SG
f 1/1/1 2/2/2 3/3/3
f 4/4/4 5/89/5 3/3/6
f 6/6/7 7/7/8 8/8/9
f 9/9/10 10/99/11 11/11/12
f 11/11/13 12/12/14 9/9/15
f 13/13/16 1/1/17 14/14/18
f 13/13/19 15/15/20 1/1/21
f 16/16/22 17/17/23 18/18/24
f 18/18/25 17/17/26 19/111/27
f 20/102/28 21/21/29 22/104/30
f 22/104/31 21/21/32 18/18/33
f 17/118/34 7/7/35 19/90/36
f 22/22/37 5/89/38 4/4/39
f 4/4/40 20/20/41 22/22/42
f 16/16/43 23/23/44 24/24/45
f 23/23/46 16/16/47 25/25/48
f 17/17/49 16/16/50 26/117/51
f 26/26/52 7/7/53 17/118/54
f 7/7/55 26/26/56 8/8/57
f 26/117/58 24/24/59 27/97/60
f 26/26/61 27/116/62 10/99/63
f 10/99/64 9/9/65 26/26/66
f 28/28/67 29/29/68 30/30/69
f 31/31/70 32/103/71 33/101/72
f 33/101/73 29/29/74 31/31/75
f 28/124/76 21/21/77 20/102/78
f 31/31/79 20/123/80 32/103/81
f 34/34/82 29/29/83 35/35/84
f 29/29/85 33/101/86 36/36/87
f 35/35/88 29/29/89 36/36/90
f 36/36/91 33/101/92 37/91/93
f 36/36/94 38/38/95 35/35/96
f 39/94/97 40/40/98 34/34/99
f 40/40/100 39/94/101 41/98/102
f 28/124/103 30/120/104 25/25/105
f 42/42/106 23/23/107 25/25/108
f 43/43/109 44/86/110 45/115/111
f 46/46/112 44/44/113 47/100/114
f 48/109/115 49/83/116 45/115/117
f 48/84/118 50/50/119 49/49/120
f 11/11/121 51/51/122 12/12/123
f 10/99/124 52/85/125 11/11/126
f 53/53/127 43/43/128 49/83/129
f 54/54/130 47/114/131 53/108/132
f 55/95/133 56/122/134 41/98/135
f 56/122/136 42/119/137 40/40/138
f 40/40/139 41/98/140 56/122/141
f 41/41/142 57/57/143 55/55/144
f 58/58/145 27/27/146 59/96/147
f 27/97/148 24/24/149 60/60/150
f 27/27/151 61/61/152 10/10/153
f 56/56/154 55/121/155 59/59/156
f 62/106/157 39/94/158 63/63/159
f 64/64/160 54/54/161 65/105/162
f 66/66/163 61/61/164 67/67/165
f 61/61/166 58/58/167 57/57/168
f 67/67/169 68/68/170 66/66/171
f 66/66/172 68/68/173 50/50/174
f 39/39/175 62/62/176 69/69/177
f 69/69/178 67/67/179 57/57/180
f 41/41/181 39/39/182 69/69/183
f 15/15/184 70/92/185 71/71/186
f 2/2/187 1/1/188 71/71/189
f 32/32/190 2/2/191 33/33/192
f 33/33/193 2/2/194 37/37/195
f 32/32/196 4/4/197 2/2/198
f 46/46/199 70/92/200 15/15/201
f 46/93/202 72/72/203 70/113/204
f 72/72/205 46/93/206 54/54/207
f 70/70/208 73/73/209 37/91/210
f 72/72/211 74/74/212 73/112/213
f 74/74/214 75/75/215 73/112/216
f 73/73/217 75/107/218 38/38/219
f 3/3/220 6/88/221 76/76/222
f 76/76/223 1/1/224 3/3/225
f 3/3/226 19/19/227 6/88/228
f 19/19/229 3/3/230 5/89/231
f 3/3/232 2/2/233 4/4/234
f 6/88/235 51/87/236 76/76/237
f 51/51/238 6/6/239 12/12/240
f 6/6/241 19/90/242 7/7/243
f 8/8/244 9/9/245 6/6/246
f 9/9/247 12/12/248 6/6/249
f 14/14/250 76/76/251 51/87/252
f 14/14/253 1/1/254 76/76/255
f 19/111/256 5/5/257 18/18/258
f 22/104/259 18/18/260 5/5/261
f 18/18/262 21/21/263 25/25/264
f 25/25/265 16/16/266 18/18/267
f 26/117/268 16/16/269 24/24/270
f 26/26/271 9/9/272 8/8/273
f 29/29/274 28/28/275 31/31/276
f 28/124/277 25/25/278 21/21/279
f 20/123/280 31/31/281 28/28/282
f 32/32/283 20/20/284 4/4/285
f 38/38/286 63/63/287 35/35/288
f 34/34/289 30/30/290 29/29/291
f 40/40/292 30/30/293 34/34/294
f 40/40/295 42/119/296 30/30/297
f 34/34/298 35/35/299 63/63/300
f 63/63/301 39/94/302 34/34/303
f 25/25/304 30/120/305 42/42/306
f 44/110/307 51/51/308 45/45/309
f 44/44/310 14/14/311 51/87/312
f 44/86/313 43/43/314 47/47/315
f 46/46/316 13/13/317 44/44/318
f 14/14/319 44/44/320 13/13/321
f 48/48/322 45/45/323 11/11/324
f 48/84/325 52/52/326 50/50/327
f 11/11/328 45/45/329 51/51/330
f 52/85/331 48/48/332 11/11/333
f 49/83/334 43/43/335 45/115/336
f 53/53/337 47/47/338 43/43/339
f 49/83/340 68/82/341 53/53/342
f 49/49/343 50/50/344 68/68/345
f 65/80/346 53/53/347 68/82/348
f 53/108/349 65/105/350 54/54/351
f 55/55/352 57/57/353 58/58/354
f 77/77/355 57/57/356 41/41/357
f 59/96/358 55/55/359 58/58/360
f 60/60/361 59/59/362 27/97/363
f 58/58/364 61/61/365 27/27/366
f 59/59/367 60/60/368 56/56/369
f 60/60/370 24/24/371 23/23/372
f 75/107/373 62/106/374 63/63/375 38/38/376
f 23/23/377 56/56/378 60/60/379
f 23/23/380 42/42/381 56/56/382
f 62/81/383 74/74/384 78/78/385
f 78/78/386 74/74/387 64/64/388
f 62/81/389 75/75/390 74/74/391
f 78/79/392 67/67/393 62/62/394
f 65/65/395 68/68/396 67/67/397
f 67/67/398 78/79/399 65/65/400
f 78/78/401 64/64/402 65/105/403
f 57/57/404 67/67/405 61/61/406
f 66/66/407 50/50/408 52/52/409
f 52/52/410 10/10/411 66/66/412
f 66/66/413 10/10/414 61/61/415
f 69/69/416 62/62/417 67/67/418
f 69/69/419 57/57/420 77/77/421
f 69/69/422 77/77/423 41/41/424
f 71/71/425 70/92/426 37/37/427
f 71/71/428 37/37/429 2/2/430
f 46/46/431 15/15/432 13/13/433
f 1/1/434 15/15/435 71/71/436
f 54/54/437 46/93/438 47/114/439
f 64/64/440 72/72/441 54/54/442
f 70/113/443 72/72/444 73/112/445
f 37/91/446 73/73/447 36/36/448
f 72/72/449 64/64/450 74/74/451
f 38/38/452 36/36/453 73/73/454
