# This file uses centimeters as units for non-parametric coordinates.

mtllib 4.mtl
v -0.279301 0.001086 -0.163598
v -0.288165 -0.209653 -0.263699
v -0.396379 -0.269111 -0.100488
v -0.416572 -0.193720 0.034176
v -0.387827 -0.405948 0.071477
v -0.388066 -0.288483 0.205609
v -0.328560 0.249410 -0.101374
v -0.187931 0.297201 -0.317788
v -0.250578 0.091636 -0.165167
v -0.324352 0.042530 -0.074811
v 0.030788 0.350385 -0.405886
v 0.108326 0.282454 -0.376822
v -0.008679 -0.020329 -0.380896
v -0.101264 0.048438 -0.393145
v -0.113419 -0.204326 -0.384209
v -0.215206 0.023593 -0.271774
v -0.141084 -0.382601 -0.252781
v 0.094686 -0.207190 -0.354808
v 0.259719 -0.101631 -0.242934
v 0.074594 -0.413449 -0.319424
v 0.301176 0.071077 -0.236825
v 0.285792 0.248506 -0.255991
v 0.212298 0.408883 -0.294382
v 0.365925 -0.020640 -0.169303
v 0.395979 -0.134065 -0.108066
v 0.304831 0.169764 0.057826
v 0.391422 -0.113506 0.077781
v 0.341520 0.264423 -0.043778
v 0.229508 0.478609 -0.124106
v 0.287763 0.397953 0.064403
v 0.296276 0.292529 0.130050
v 0.229019 -0.356861 -0.260749
v 0.398315 -0.327555 -0.089302
v 0.342369 -0.274719 -0.173231
v 0.339423 -0.122419 0.210434
v 0.264865 0.051393 0.227411
v 0.195142 0.232825 0.337960
v 0.144815 0.429374 0.269280
v 0.272599 0.098980 0.143382
v 0.172261 0.015360 0.406543
v -0.045337 -0.000210 0.499020
v 0.018876 0.352180 0.415678
v -0.079029 0.209559 0.457141
v -0.170291 0.336463 0.398363
v 0.130544 -0.210970 0.453249
v 0.098079 -0.417386 0.395774
v 0.298557 -0.306647 0.294618
v -0.186182 0.057602 0.416938
v -0.221510 -0.109980 0.401682
v -0.045160 -0.226460 0.493741
v -0.286398 0.307329 0.324129
v -0.368237 -0.010787 0.173069
v -0.347394 0.264788 0.228849
v -0.377177 0.207426 0.064770
v -0.305608 0.354103 -0.115119
v -0.331150 -0.243139 0.305571
v -0.136437 -0.456250 0.409380
v -0.170681 -0.525145 -0.067416
v -0.254820 -0.535684 0.138953
v -0.346962 -0.396507 -0.075629
v -0.111004 -0.594309 0.180120
v -0.292036 -0.453591 0.275874
v 0.076406 -0.559689 -0.104511
v 0.352316 -0.517287 0.029469
v 0.163753 -0.614179 0.090947
v 0.273970 -0.532596 -0.111934
v 0.383725 -0.384086 0.125211
v 0.056157 -0.566409 0.239579
v 0.252094 -0.511370 0.187671
v -0.117007 0.587863 0.096814
v -0.134359 0.489519 0.303726
v 0.089731 0.543932 0.137114
v -0.275644 0.457888 0.162381
v 0.091662 0.559031 -0.260237
v 0.039713 0.595110 0.003190
v -0.056264 0.532723 -0.250327
v -0.186165 0.465707 -0.205576
v -0.249209 0.489163 -0.006401
vt 0.567170 0.237309
vt 0.510552 0.143783
vt 0.593525 0.099120
vt 0.629858 0.592153
vt 0.358264 0.180431
vt 0.338981 0.106579
vt 0.754084 0.787228
vt 0.509687 0.388781
vt 0.567742 0.281213
vt 0.618154 0.247701
vt 0.410113 0.443601
vt 0.940655 0.307189
vt 0.920362 0.154123
vt 0.432287 0.284842
vt 0.923315 0.052459
vt 0.508807 0.258041
vt 0.405884 0.353521
vt 0.835057 0.098189
vt 0.773890 0.185730
vt 0.792445 0.008213
vt 0.795056 0.267588
vt 0.367540 0.966396
vt 0.912552 0.389275
vt 0.138166 0.630375
vt 0.120460 0.578114
vt 0.454325 0.853102
vt 0.569384 0.891184
vt 0.403367 0.882773
vt 0.300168 0.875052
vt 0.366405 0.821002
vt 0.414718 0.809250
vt 0.235620 0.502630
vt 0.127397 0.497231
vt 0.167100 0.527017
vt 0.589338 0.835573
vt 0.520974 0.795549
vt 0.263918 0.754038
vt 0.365943 0.718947
vt 0.492203 0.823842
vt 0.332854 0.655078
vt 0.909744 0.454795
vt 0.155170 0.718417
vt 0.959198 0.546869
vt 0.080788 0.657874
vt 0.655709 0.715292
vt 0.092386 0.212973
vt 0.672893 0.819330
vt 0.869058 0.524268
vt 0.803088 0.477900
vt 0.119298 0.052929
vt 0.899637 0.650009
vt 0.739409 0.602170
vt 0.849220 0.669473
vt 0.782196 0.709362
vt 0.622022 0.400709
vt 0.263985 0.055823
vt 0.172192 0.147430
vt 0.323974 0.299997
vt 0.285651 0.211819
vt 0.394134 0.238454
vt 0.231502 0.240002
vt 0.262186 0.146151
vt 0.251069 0.374287
vt 0.129845 0.403102
vt 0.171745 0.333203
vt 0.189599 0.424046
vt 0.681596 0.906012
vt 0.162609 0.262458
vt 0.102373 0.330944
vt 0.636064 0.628862
vt 0.991338 0.711025
vt 0.290763 0.748411
vt 0.907200 0.748361
vt 0.988722 0.442759
vt 0.040418 0.937173
vt 0.507323 0.518801
vt 0.834319 0.906591
vt 0.878984 0.820517
vt 0.219477 0.903473
vt 0.990403 0.318139
vt 0.290579 0.949857
vt 0.098634 0.884430
vt 0.550542 0.643602
vt 0.398014 0.552128
vt 0.556935 0.718194
vt 0.734315 0.068809
vt 0.736061 0.247806
vt 0.975104 0.161846
vt -0.009607 0.856438
vt 0.959118 0.626847
vt 0.039848 0.747383
vt 0.171204 0.821882
vt 0.340111 0.045205
vt 0.253756 0.559584
vt 0.338898 0.479118
vt 0.166142 0.629771
vt 0.459555 0.722784
vt 0.842533 0.338488
vt 0.413841 0.162562
vt 0.450648 0.562449
vt 0.239045 0.788551
vt 0.654845 0.501883
vt 0.708637 0.478851
vt 0.003961 0.349582
vt 0.065518 0.410551
vt 0.013611 0.172961
vt 0.626377 0.348648
vt 0.792380 0.824532
vt 0.662466 0.120218
vt 0.681475 0.713578
vt 0.560956 0.467922
vt 0.971533 0.823587
vt 0.876251 0.966040
vt 0.630053 0.985172
vt 0.201341 0.001386
vt 0.838806 0.375571
vt 0.549953 0.966765
vt 0.494418 0.972549
vt 0.578786 0.035511
vt 0.650457 0.015015
vt 0.447396 0.059301
vt 0.307275 0.465506
vt 0.727687 0.051374
vt 0.311168 0.077549
vt 0.013951 0.282169
vt 0.062859 0.111324
vt 0.377330 0.391443
vn -0.845907 0.257402 -0.467104
vn -0.845907 0.257402 -0.467104
vn -0.845907 0.257402 -0.467104
vn -0.988158 -0.116295 0.100096
vn -0.988158 -0.116295 0.100096
vn -0.988158 -0.116295 0.100096
vn -0.808276 -0.171795 -0.563184
vn -0.808276 -0.171795 -0.563184
vn -0.808276 -0.171795 -0.563184
vn -0.812103 0.248401 -0.528002
vn -0.812103 0.248401 -0.528002
vn -0.812103 0.248401 -0.528002
vn 0.276293 -0.093898 -0.956476
vn 0.276293 -0.093898 -0.956476
vn 0.276293 -0.093898 -0.956476
vn 0.101800 -0.040000 -0.994000
vn 0.101800 -0.040000 -0.994000
vn 0.101800 -0.040000 -0.994000
vn -0.734080 0.207194 -0.646682
vn -0.734080 0.207194 -0.646682
vn -0.734080 0.207194 -0.646682
vn -0.492785 -0.465486 -0.735178
vn -0.492785 -0.465486 -0.735178
vn -0.492785 -0.465486 -0.735178
vn 0.487505 0.149601 -0.860208
vn 0.487505 0.149601 -0.860208
vn 0.487505 0.149601 -0.860208
vn 0.138804 -0.061202 -0.988427
vn 0.138804 -0.061202 -0.988427
vn 0.138804 -0.061202 -0.988427
vn -0.318610 -0.529916 -0.785924
vn -0.318610 -0.529916 -0.785924
vn -0.318610 -0.529916 -0.785924
vn 0.135197 -0.180296 -0.974277
vn 0.135197 -0.180296 -0.974277
vn 0.135197 -0.180296 -0.974277
vn 0.438187 -0.073498 -0.895874
vn 0.438187 -0.073498 -0.895874
vn 0.438187 -0.073498 -0.895874
vn 0.570093 0.065199 -0.818989
vn 0.570093 0.065199 -0.818989
vn 0.570093 0.065199 -0.818989
vn 0.712068 -0.014099 -0.701969
vn 0.712068 -0.014099 -0.701969
vn 0.712068 -0.014099 -0.701969
vn 0.961910 0.271603 0.031000
vn 0.961910 0.271603 0.031000
vn 0.961910 0.271603 0.031000
vn 0.956444 0.291783 -0.008799
vn 0.956444 0.291783 -0.008799
vn 0.956444 0.291783 -0.008799
vn 0.896070 0.434486 -0.090997
vn 0.896070 0.434486 -0.090997
vn 0.896070 0.434486 -0.090997
vn 0.944607 0.196602 -0.262802
vn 0.944607 0.196602 -0.262802
vn 0.944607 0.196602 -0.262802
vn 0.960365 -0.088597 0.264290
vn 0.960365 -0.088597 0.264290
vn 0.960365 -0.088597 0.264290
vn 0.627210 -0.123402 -0.769012
vn 0.627210 -0.123402 -0.769012
vn 0.627210 -0.123402 -0.769012
vn 0.565674 -0.010500 -0.824562
vn 0.565674 -0.010500 -0.824562
vn 0.565674 -0.010500 -0.824562
vn 0.817662 -0.045798 -0.573874
vn 0.817662 -0.045798 -0.573874
vn 0.817662 -0.045798 -0.573874
vn 0.868624 0.337109 0.363110
vn 0.868624 0.337109 0.363110
vn 0.868624 0.337109 0.363110
vn 0.485319 -0.129905 -0.864633
vn 0.485319 -0.129905 -0.864633
vn 0.485319 -0.129905 -0.864633
vn 0.485319 -0.129905 -0.864633
vn 0.999636 0.014301 0.022901
vn 0.999636 0.014301 0.022901
vn 0.999636 0.014301 0.022901
vn 0.889624 0.066602 0.451812
vn 0.889624 0.066602 0.451812
vn 0.889624 0.066602 0.451812
vn 0.787702 0.373001 0.490301
vn 0.787702 0.373001 0.490301
vn 0.787702 0.373001 0.490301
vn 0.797689 0.281396 0.533393
vn 0.797689 0.281396 0.533393
vn 0.797689 0.281396 0.533393
vn 0.955290 -0.097599 0.279097
vn 0.955290 -0.097599 0.279097
vn 0.955290 -0.097599 0.279097
vn 0.819843 0.304316 0.485025
vn 0.819843 0.304316 0.485025
vn 0.819843 0.304316 0.485025
vn 0.882477 0.054499 0.467188
vn 0.882477 0.054499 0.467188
vn 0.882477 0.054499 0.467188
vn 0.377919 0.147307 0.914045
vn 0.377919 0.147307 0.914045
vn 0.377919 0.147307 0.914045
vn 0.104503 0.210806 0.971926
vn 0.104503 0.210806 0.971926
vn 0.104503 0.210806 0.971926
vn 0.581824 0.397017 0.709830
vn 0.581824 0.397017 0.709830
vn 0.581824 0.397017 0.709830
vn -0.114103 0.348808 0.930222
vn -0.114103 0.348808 0.930222
vn -0.114103 0.348808 0.930222
vn 0.557408 -0.302904 0.773011
vn 0.557408 -0.302904 0.773011
vn 0.557408 -0.302904 0.773011
vn -0.454987 0.014900 0.890374
vn -0.454987 0.014900 0.890374
vn -0.454987 0.014900 0.890374
vn 0.226394 -0.022499 0.973776
vn 0.226394 -0.022499 0.973776
vn 0.226394 -0.022499 0.973776
vn 0.239202 -0.295202 0.925007
vn 0.239202 -0.295202 0.925007
vn 0.239202 -0.295202 0.925007
vn -0.494806 0.121201 0.860510
vn -0.494806 0.121201 0.860510
vn -0.494806 0.121201 0.860510
vn -0.539117 0.002400 0.842227
vn -0.539117 0.002400 0.842227
vn -0.539117 0.002400 0.842227
vn -0.791101 -0.063300 0.608401
vn -0.791101 -0.063300 0.608401
vn -0.791101 -0.063300 0.608401
vn -0.985516 0.041201 0.164503
vn -0.985516 0.041201 0.164503
vn -0.985516 0.041201 0.164503
vn -0.969418 -0.139803 -0.201704
vn -0.969418 -0.139803 -0.201704
vn -0.969418 -0.139803 -0.201704
vn -0.954192 -0.057099 -0.293697
vn -0.954192 -0.057099 -0.293697
vn -0.954192 -0.057099 -0.293697
vn -0.895364 0.445282 0.006900
vn -0.895364 0.445282 0.006900
vn -0.895364 0.445282 0.006900
vn -0.811621 0.186205 0.553714
vn -0.811621 0.186205 0.553714
vn -0.811621 0.186205 0.553714
vn -0.567024 -0.121205 0.814735
vn -0.567024 -0.121205 0.814735
vn -0.567024 -0.121205 0.814735
vn -0.559698 -0.784097 -0.268199
vn -0.559698 -0.784097 -0.268199
vn -0.559698 -0.784097 -0.268199
vn -0.393013 -0.806327 0.442015
vn -0.393013 -0.806327 0.442015
vn -0.393013 -0.806327 0.442015
vn -0.199100 -0.761199 -0.617199
vn -0.199100 -0.761199 -0.617199
vn -0.199100 -0.761199 -0.617199
vn -0.459494 -0.667091 -0.586392
vn -0.459494 -0.667091 -0.586392
vn -0.459494 -0.667091 -0.586392
vn -0.543308 -0.504408 -0.671110
vn -0.543308 -0.504408 -0.671110
vn -0.543308 -0.504408 -0.671110
vn 0.417904 -0.898509 -0.134301
vn 0.417904 -0.898509 -0.134301
vn 0.417904 -0.898509 -0.134301
vn 0.803507 -0.443404 -0.397203
vn 0.803507 -0.443404 -0.397203
vn 0.803507 -0.443404 -0.397203
vn 0.972512 -0.232803 0.004800
vn 0.972512 -0.232803 0.004800
vn 0.972512 -0.232803 0.004800
vn 0.091801 -0.822910 -0.560707
vn 0.091801 -0.822910 -0.560707
vn 0.091801 -0.822910 -0.560707
vn 0.461766 -0.501463 -0.731646
vn 0.461766 -0.501463 -0.731646
vn 0.461766 -0.501463 -0.731646
vn 0.355084 -0.784064 0.509077
vn 0.355084 -0.784064 0.509077
vn 0.355084 -0.784064 0.509077
vn 0.039401 -0.942629 0.331510
vn 0.039401 -0.942629 0.331510
vn 0.039401 -0.942629 0.331510
vn 0.160096 -0.735281 0.658583
vn 0.160096 -0.735281 0.658583
vn 0.160096 -0.735281 0.658583
vn 0.116594 -0.382780 0.916453
vn 0.116594 -0.382780 0.916453
vn 0.116594 -0.382780 0.916453
vn 0.516307 -0.778810 0.356205
vn 0.516307 -0.778810 0.356205
vn 0.516307 -0.778810 0.356205
vn 0.591183 -0.474787 0.651982
vn 0.591183 -0.474787 0.651982
vn 0.591183 -0.474787 0.651982
vn 0.105497 0.894673 0.434087
vn 0.105497 0.894673 0.434087
vn 0.105497 0.894673 0.434087
vn 0.253893 0.765378 0.591383
vn 0.253893 0.765378 0.591383
vn 0.253893 0.765378 0.591383
vn 0.207398 0.780392 0.589894
vn 0.207398 0.780392 0.589894
vn 0.207398 0.780392 0.589894
vn -0.511117 0.792126 0.333611
vn -0.511117 0.792126 0.333611
vn -0.511117 0.792126 0.333611
vn -0.666180 0.499085 0.554183
vn -0.666180 0.499085 0.554183
vn -0.666180 0.499085 0.554183
vn 0.620131 0.772139 0.138707
vn 0.620131 0.772139 0.138707
vn 0.620131 0.772139 0.138707
vn 0.787497 0.370399 0.492598
vn 0.787497 0.370399 0.492598
vn 0.787497 0.370399 0.492598
vn -0.141800 0.976599 -0.161700
vn -0.141800 0.976599 -0.161700
vn -0.141800 0.976599 -0.161700
vn 0.515403 0.856804 -0.015700
vn 0.515403 0.856804 -0.015700
vn 0.515403 0.856804 -0.015700
vn -0.425709 0.461009 -0.778616
vn -0.425709 0.461009 -0.778616
vn -0.425709 0.461009 -0.778616
vn -0.497717 0.484316 -0.719525
vn -0.497717 0.484316 -0.719525
vn -0.497717 0.484316 -0.719525
vn 0.474614 0.172505 -0.863125
vn 0.474614 0.172505 -0.863125
vn 0.474614 0.172505 -0.863125
vn -0.468792 0.855986 -0.217996
vn -0.468792 0.855986 -0.217996
vn -0.468792 0.855986 -0.217996
vn -0.902204 0.426802 -0.062200
vn -0.902204 0.426802 -0.062200
vn -0.902204 0.426802 -0.062200
vn -0.755118 0.368809 -0.542013
vn -0.755118 0.368809 -0.542013
vn -0.755118 0.368809 -0.542013
vn -0.853073 0.262792 -0.450786
vn -0.853073 0.262792 -0.450786
vn -0.853073 0.262792 -0.450786
vn -0.854691 0.251597 -0.454095
vn -0.854691 0.251597 -0.454095
vn -0.854691 0.251597 -0.454095
vn -0.819228 0.232508 -0.524218
vn -0.819228 0.232508 -0.524218
vn -0.819228 0.232508 -0.524218
vn -0.696784 -0.387991 -0.603286
vn -0.696784 -0.387991 -0.603286
vn -0.696784 -0.387991 -0.603286
vn -0.878974 -0.393488 -0.269392
vn -0.878974 -0.393488 -0.269392
vn -0.878974 -0.393488 -0.269392
vn -0.932130 0.237908 -0.273009
vn -0.932130 0.237908 -0.273009
vn -0.932130 0.237908 -0.273009
vn -0.987128 -0.145404 -0.066602
vn -0.987128 -0.145404 -0.066602
vn -0.987128 -0.145404 -0.066602
vn -0.941089 0.037300 -0.336096
vn -0.941089 0.037300 -0.336096
vn -0.941089 0.037300 -0.336096
vn -0.844352 0.116493 -0.522971
vn -0.844352 0.116493 -0.522971
vn -0.844352 0.116493 -0.522971
vn -0.743414 -0.100002 -0.661313
vn -0.743414 -0.100002 -0.661313
vn -0.743414 -0.100002 -0.661313
vn -0.723913 -0.043601 -0.688512
vn -0.723913 -0.043601 -0.688512
vn -0.723913 -0.043601 -0.688512
vn -0.398390 0.135997 -0.907078
vn -0.398390 0.135997 -0.907078
vn -0.398390 0.135997 -0.907078
vn 0.075799 -0.075099 -0.994291
vn 0.075799 -0.075099 -0.994291
vn 0.075799 -0.075099 -0.994291
vn -0.567716 -0.001800 -0.823223
vn -0.567716 -0.001800 -0.823223
vn -0.567716 -0.001800 -0.823223
vn 0.903374 0.357090 -0.237493
vn 0.903374 0.357090 -0.237493
vn 0.903374 0.357090 -0.237493
vn 0.892065 0.368286 -0.261890
vn 0.892065 0.368286 -0.261890
vn 0.892065 0.368286 -0.261890
vn 0.712990 -0.055299 -0.698990
vn 0.712990 -0.055299 -0.698990
vn 0.712990 -0.055299 -0.698990
vn 0.712990 -0.055299 -0.698990
vn 0.953279 -0.049599 0.297993
vn 0.953279 -0.049599 0.297993
vn 0.953279 -0.049599 0.297993
vn 0.575981 -0.012200 -0.817372
vn 0.575981 -0.012200 -0.817372
vn 0.575981 -0.012200 -0.817372
vn 0.409494 -0.192897 -0.891687
vn 0.409494 -0.192897 -0.891687
vn 0.409494 -0.192897 -0.891687
vn -0.224500 -0.951201 -0.211700
vn -0.224500 -0.951201 -0.211700
vn -0.224500 -0.951201 -0.211700
vn -0.224500 -0.951201 -0.211700
vn 0.929490 0.037900 0.366896
vn 0.929490 0.037900 0.366896
vn 0.929490 0.037900 0.366896
vn 0.997844 -0.017301 0.063303
vn 0.997844 -0.017301 0.063303
vn 0.997844 -0.017301 0.063303
vn 0.868691 0.392496 0.302197
vn 0.868691 0.392496 0.302197
vn 0.868691 0.392496 0.302197
vn 0.992520 -0.119802 0.023500
vn 0.992520 -0.119802 0.023500
vn 0.992520 -0.119802 0.023500
vn 0.381120 0.118906 0.916847
vn 0.381120 0.118906 0.916847
vn 0.381120 0.118906 0.916847
vn 0.509798 0.209499 0.834396
vn 0.509798 0.209499 0.834396
vn 0.509798 0.209499 0.834396
vn 0.894512 0.005900 0.447006
vn 0.894512 0.005900 0.447006
vn 0.894512 0.005900 0.447006
vn 0.722286 0.148397 0.675487
vn 0.722286 0.148397 0.675487
vn 0.722286 0.148397 0.675487
vn 0.759075 -0.005600 0.650979
vn 0.759075 -0.005600 0.650979
vn 0.759075 -0.005600 0.650979
vn -0.509704 -0.020500 0.860106
vn -0.509704 -0.020500 0.860106
vn -0.509704 -0.020500 0.860106
vn -0.515004 -0.107601 0.850407
vn -0.515004 -0.107601 0.850407
vn -0.515004 -0.107601 0.850407
vn -0.812880 -0.113897 0.571186
vn -0.812880 -0.113897 0.571186
vn -0.812880 -0.113897 0.571186
vn -0.835599 0.428699 0.343499
vn -0.835599 0.428699 0.343499
vn -0.835599 0.428699 0.343499
vn -0.470209 0.099602 0.876917
vn -0.470209 0.099602 0.876917
vn -0.470209 0.099602 0.876917
vn -0.939924 0.340409 -0.025801
vn -0.939924 0.340409 -0.025801
vn -0.939924 0.340409 -0.025801
vn -0.955554 0.178691 -0.234489
vn -0.955554 0.178691 -0.234489
vn -0.955554 0.178691 -0.234489
vn -0.714620 0.087502 0.694019
vn -0.714620 0.087502 0.694019
vn -0.714620 0.087502 0.694019
vn -0.884852 0.116094 0.451176
vn -0.884852 0.116094 0.451176
vn -0.884852 0.116094 0.451176
vn -0.798426 -0.227107 0.557618
vn -0.798426 -0.227107 0.557618
vn -0.798426 -0.227107 0.557618
vn -0.637026 -0.222509 0.738030
vn -0.637026 -0.222509 0.738030
vn -0.637026 -0.222509 0.738030
vn -0.941519 0.322606 -0.097302
vn -0.941519 0.322606 -0.097302
vn -0.941519 0.322606 -0.097302
vn -0.972275 0.094498 0.213895
vn -0.972275 0.094498 0.213895
vn -0.972275 0.094498 0.213895
vn 0.707913 -0.476108 0.521709
vn 0.707913 -0.476108 0.521709
vn 0.707913 -0.476108 0.521709
vn 0.707913 -0.476108 0.521709
vn -0.621309 -0.751811 -0.220803
vn -0.621309 -0.751811 -0.220803
vn -0.621309 -0.751811 -0.220803
vn -0.439613 -0.818025 0.370911
vn -0.439613 -0.818025 0.370911
vn -0.439613 -0.818025 0.370911
vn -0.733404 -0.652204 0.191701
vn -0.733404 -0.652204 0.191701
vn -0.733404 -0.652204 0.191701
vn -0.871499 -0.369699 0.322199
vn -0.871499 -0.369699 0.322199
vn -0.871499 -0.369699 0.322199
vn -0.280003 -0.794807 -0.538405
vn -0.280003 -0.794807 -0.538405
vn -0.280003 -0.794807 -0.538405
vn 0.117302 -0.941813 -0.315004
vn 0.117302 -0.941813 -0.315004
vn 0.117302 -0.941813 -0.315004
vn 0.706177 -0.283091 -0.648979
vn 0.706177 -0.283091 -0.648979
vn 0.706177 -0.283091 -0.648979
vn 0.695317 -0.352509 -0.626316
vn 0.695317 -0.352509 -0.626316
vn 0.695317 -0.352509 -0.626316
vn -0.137700 -0.968302 -0.208400
vn -0.137700 -0.968302 -0.208400
vn -0.137700 -0.968302 -0.208400
vn -0.039001 -0.857915 0.512309
vn -0.039001 -0.857915 0.512309
vn -0.039001 -0.857915 0.512309
vn 0.359473 -0.721447 0.591856
vn 0.359473 -0.721447 0.591856
vn 0.359473 -0.721447 0.591856
vn 0.140101 0.941209 0.307403
vn 0.140101 0.941209 0.307403
vn 0.140101 0.941209 0.307403
vn -0.621200 0.782199 0.047700
vn -0.621200 0.782199 0.047700
vn -0.621200 0.782199 0.047700
vn -0.520903 0.641804 0.562803
vn -0.520903 0.641804 0.562803
vn -0.520903 0.641804 0.562803
vn -0.121197 0.542485 0.831277
vn -0.121197 0.542485 0.831277
vn -0.121197 0.542485 0.831277
vn 0.568316 0.816723 0.099903
vn 0.568316 0.816723 0.099903
vn 0.568316 0.816723 0.099903
vn 0.635696 0.694495 0.336998
vn 0.635696 0.694495 0.336998
vn 0.635696 0.694495 0.336998
vn 0.953855 0.210412 0.214212
vn 0.953855 0.210412 0.214212
vn 0.953855 0.210412 0.214212
vn 0.697527 0.635625 -0.330813
vn 0.697527 0.635625 -0.330813
vn 0.697527 0.635625 -0.330813
vn -0.184108 0.965242 -0.185508
vn -0.184108 0.965242 -0.185508
vn -0.184108 0.965242 -0.185508
vn -0.158690 0.595863 -0.787251
vn -0.158690 0.595863 -0.787251
vn -0.158690 0.595863 -0.787251
vn 0.349401 0.465601 -0.813102
vn 0.349401 0.465601 -0.813102
vn 0.349401 0.465601 -0.813102
vn -0.511723 0.819336 -0.258511
vn -0.511723 0.819336 -0.258511
vn -0.511723 0.819336 -0.258511
vn -0.763610 0.567208 -0.308504
vn -0.763610 0.567208 -0.308504
vn -0.763610 0.567208 -0.308504
s off
usemtl lambert5SG
f 1/1/1 2/2/2 3/3/3
f 4/109/4 5/120/5 6/123/6
f 7/107/7 8/8/8 9/9/9
f 9/9/10 1/1/11 10/10/12
f 11/80/13 12/12/14 13/13/15
f 14/88/16 13/13/17 15/15/18
f 2/2/19 16/16/20 14/14/21
f 17/121/22 2/2/23 15/99/24
f 18/18/25 13/13/26 19/19/27
f 13/13/28 18/18/29 15/15/30
f 15/99/31 20/93/32 17/121/33
f 18/18/34 20/20/35 15/15/36
f 19/19/37 13/13/38 21/21/39
f 22/98/40 12/12/41 23/23/42
f 22/98/43 24/87/44 21/21/45
f 25/117/46 24/118/47 26/26/48
f 26/26/49 27/27/50 25/117/51
f 28/28/52 29/29/53 30/30/54
f 28/28/55 24/118/56 22/22/57
f 26/26/58 28/28/59 31/31/60
f 21/21/61 24/87/62 19/19/63
f 32/86/64 18/18/65 19/19/66
f 25/25/67 33/33/68 34/34/69
f 35/35/70 27/27/71 36/36/72
f 21/21/73 13/13/74 12/12/75 22/98/76
f 33/114/77 25/117/78 27/27/79
f 31/31/80 37/97/81 36/36/82
f 37/97/83 31/31/84 38/38/85
f 27/27/86 26/26/87 39/39/88
f 39/39/89 26/26/90 31/31/91
f 35/35/92 36/36/93 40/85/94
f 40/85/95 36/36/96 37/97/97
f 41/94/98 40/40/99 42/42/100
f 42/42/101 43/96/102 41/94/103
f 38/92/104 42/42/105 37/37/106
f 43/96/107 42/42/108 44/44/109
f 45/106/110 46/46/111 47/125/112
f 48/48/113 49/49/114 50/116/115
f 50/95/116 45/84/117 41/94/118
f 46/46/119 45/106/120 50/126/121
f 48/48/122 43/43/123 51/51/124
f 43/43/125 44/90/126 51/51/127
f 52/52/128 48/48/129 53/53/130
f 53/53/131 54/54/132 52/52/133
f 52/52/134 54/54/135 10/110/136
f 10/110/137 54/54/138 7/7/139
f 54/54/140 53/53/141 55/108/142
f 56/103/143 48/48/144 52/52/145
f 57/57/146 49/115/147 56/56/148
f 58/58/149 59/59/150 60/60/151
f 61/61/152 57/57/153 62/62/154
f 58/58/155 17/127/156 63/63/157
f 58/58/158 60/60/159 17/17/160
f 17/121/161 60/119/162 2/2/163
f 64/64/164 65/65/165 66/66/166
f 66/66/167 33/33/168 64/64/169
f 64/64/170 33/33/171 67/105/172
f 20/122/173 66/66/174 63/63/175
f 32/32/176 66/66/177 20/122/178
f 68/68/179 65/65/180 69/69/181
f 65/65/182 68/68/183 61/61/184
f 68/68/185 46/46/186 57/57/187
f 57/57/188 46/46/189 50/126/190
f 65/65/191 64/64/192 69/69/193
f 47/125/194 46/46/195 69/69/196
f 70/89/197 71/91/198 72/82/199
f 72/82/200 71/91/201 42/42/202
f 38/92/203 72/82/204 42/42/205
f 73/73/206 71/71/207 70/112/208
f 71/71/209 73/73/210 44/90/211
f 29/29/212 72/72/213 30/30/214
f 30/30/215 38/38/216 31/31/217
f 74/100/218 70/70/219 75/83/220
f 75/101/221 29/29/222 74/79/223
f 76/76/224 11/11/225 8/8/226
f 8/8/227 77/111/228 76/76/229
f 23/23/230 12/12/231 11/80/232
f 76/113/233 78/78/234 70/112/235
f 78/78/236 55/108/237 73/73/238
f 8/8/239 55/55/240 77/111/241
f 1/1/242 9/9/243 16/16/244
f 1/1/245 16/16/246 2/2/247
f 1/1/248 3/3/249 10/10/250
f 3/3/251 2/2/252 60/119/253
f 60/119/254 5/120/255 3/3/256
f 3/3/257 4/109/258 10/10/259
f 4/109/260 3/3/261 5/120/262
f 9/9/263 8/8/264 16/16/265
f 8/8/266 7/107/267 55/55/268
f 9/9/269 10/10/270 7/107/271
f 14/14/272 16/16/273 8/8/274
f 8/8/275 11/11/276 14/14/277
f 13/13/278 14/88/279 11/80/280
f 15/99/281 2/2/282 14/14/283
f 23/81/284 29/29/285 22/22/286
f 29/29/287 28/28/288 22/22/289
f 24/24/290 25/25/291 34/34/292 32/32/293
f 26/26/294 24/118/295 28/28/296
f 19/19/297 24/87/298 32/86/299
f 32/86/300 20/20/301 18/18/302
f 63/63/303 61/61/304 59/59/305 58/58/306
f 27/27/307 35/35/308 67/67/309
f 33/114/310 27/27/311 67/67/312
f 36/36/313 27/27/314 39/39/315
f 36/36/316 39/39/317 31/31/318
f 40/40/319 41/94/320 45/84/321
f 40/40/322 37/37/323 42/42/324
f 47/47/325 67/67/326 35/35/327
f 35/35/328 45/45/329 47/47/330
f 45/45/331 35/35/332 40/85/333
f 41/41/334 48/48/335 50/116/336
f 50/50/337 49/115/338 57/57/339
f 53/53/340 48/48/341 51/51/342
f 51/51/343 73/73/344 53/53/345
f 48/48/346 41/41/347 43/43/348
f 55/108/349 53/53/350 73/73/351
f 55/108/352 7/7/353 54/54/354
f 56/103/355 49/49/356 48/48/357
f 56/103/358 52/52/359 6/102/360
f 56/56/361 6/124/362 62/62/363
f 62/62/364 57/57/365 56/56/366
f 52/52/367 10/110/368 4/4/369
f 52/52/370 4/4/371 6/102/372
f 67/105/373 47/104/374 69/69/375 64/64/376
f 60/60/377 59/59/378 5/5/379
f 61/61/380 62/62/381 59/59/382
f 5/5/383 59/59/384 62/62/385
f 62/62/386 6/6/387 5/5/388
f 63/63/389 17/127/390 20/122/391
f 66/66/392 65/65/393 63/63/394
f 33/33/395 32/32/396 34/34/397
f 33/33/398 66/66/399 32/32/400
f 61/61/401 63/63/402 65/65/403
f 68/68/404 57/57/405 61/61/406
f 68/68/407 69/69/408 46/46/409
f 70/89/410 72/82/411 75/75/412
f 70/112/413 78/78/414 73/73/415
f 44/90/416 73/73/417 51/51/418
f 44/44/419 42/42/420 71/91/421
f 72/72/422 29/29/423 75/101/424
f 30/30/425 72/72/426 38/38/427
f 31/31/428 28/28/429 30/30/430
f 74/79/431 29/29/432 23/81/433
f 74/100/434 76/76/435 70/70/436
f 76/76/437 74/100/438 11/11/439
f 11/80/440 74/74/441 23/23/442
f 76/113/443 77/77/444 78/78/445
f 78/78/446 77/77/447 55/108/448
