# This file uses centimeters as units for non-parametric coordinates.

mtllib 7.mtl
v 0.501252 -0.219457 -0.114278
v 0.385341 -0.122838 -0.291099
v 0.419670 0.008705 -0.198413
v 0.440016 -0.114704 -0.074877
v 0.314493 -0.031346 -0.039681
v 0.347136 0.027491 -0.302598
v 0.436922 -0.309787 -0.170055
v 0.393125 -0.455385 -0.076207
v 0.386444 -0.407396 0.089013
v 0.348583 -0.173313 0.063053
v 0.331161 -0.305681 0.161154
v 0.282109 -0.252937 -0.284650
v 0.238826 -0.375365 -0.249143
v 0.138492 0.025166 0.000369
v 0.010319 0.068618 0.105911
v 0.002754 -0.089063 0.231615
v 0.219133 -0.133835 0.118308
v -0.010730 -0.186732 0.346872
v -0.028732 -0.383222 0.365569
v 0.190924 -0.230693 0.240313
v -0.143490 0.241631 0.142352
v 0.035957 0.257880 0.008398
v 0.096953 0.350110 -0.073269
v 0.191118 0.144328 -0.113365
v -0.287292 0.261607 0.168496
v -0.206754 0.166765 0.216721
v -0.413277 0.189364 0.146098
v -0.355615 -0.034306 0.207953
v -0.084549 0.400024 0.001625
v -0.204472 0.448109 -0.018889
v -0.160847 0.039401 0.221584
v -0.127067 -0.107617 0.272041
v -0.291633 -0.204830 0.260754
v -0.100212 0.402945 -0.363083
v -0.041581 0.489267 -0.244908
v 0.037382 0.376830 -0.406122
v 0.120560 0.435584 -0.228463
v -0.053441 0.481208 -0.138302
v 0.250837 0.193708 -0.221426
v 0.168681 0.213175 -0.358746
v -0.223905 0.474605 -0.189598
v -0.221643 0.350272 -0.299404
v -0.323973 0.405364 -0.071244
v 0.268432 -0.010012 -0.385269
v 0.025723 0.076493 -0.443046
v -0.039514 0.304155 -0.423792
v -0.016988 -0.256800 -0.384982
v 0.219435 -0.176634 -0.356076
v 0.061343 -0.351707 -0.317424
v 0.045498 -0.102360 -0.431181
v -0.160357 -0.088972 -0.425204
v -0.302935 -0.181668 -0.296921
v -0.263171 0.054732 -0.370231
v -0.133841 -0.344790 -0.236471
v -0.146421 0.116185 -0.446187
v -0.274602 0.216490 -0.293202
v 0.201999 -0.544242 0.062251
v 0.178774 -0.469062 -0.183027
v 0.023900 -0.561843 0.157758
v 0.180688 -0.434331 0.215461
v -0.177218 -0.464565 0.006509
v 0.029394 -0.510588 -0.041667
v -0.258066 -0.463843 0.200595
v -0.135873 -0.344741 0.364295
v -0.399274 -0.264955 0.192731
v -0.317791 -0.300569 -0.146753
v -0.366873 -0.194474 -0.189731
v -0.404495 -0.328790 0.009813
v -0.401613 -0.089956 -0.124337
v -0.445131 0.126045 0.046623
v -0.451429 -0.166941 0.027405
v -0.437607 -0.059430 0.146402
v -0.412871 0.138699 -0.101254
v -0.404463 0.259805 -0.053309
v -0.345468 0.301277 0.105650
v -0.357427 0.329626 0.009928
v -0.392103 0.019306 -0.220629
v -0.354709 0.272512 -0.172805
vt 0.358169 0.081368
vt 0.675158 0.680918
vt 0.625115 0.749982
vt 0.421838 0.108046
vt 0.491671 0.152142
vt 0.692332 0.756602
vt 0.621849 0.580085
vt 0.611890 0.487872
vt 0.280498 0.225140
vt 0.408582 0.201805
vt 0.343808 0.264153
vt 0.719889 0.608466
vt 0.729485 0.540647
vt 0.565510 0.221881
vt 0.613704 0.303952
vt 0.534172 0.379556
vt 0.458643 0.264014
vt 0.320353 0.947137
vt 0.372787 0.863208
vt 0.411239 0.335845
vt 0.737358 0.343589
vt 0.697921 0.225310
vt 0.732750 0.157822
vt 0.613693 0.137521
vt 0.801422 0.400482
vt 0.089448 0.991904
vt 0.866350 0.458809
vt 0.117357 0.862830
vt 0.790518 0.242332
vt 0.850047 0.268087
vt 0.647512 0.414586
vt 0.567461 0.447707
vt 0.210169 0.829147
vt 0.953008 0.102450
vt 0.870699 0.128518
vt 0.860223 0.938496
vt 0.766432 0.989118
vt 0.836342 0.170662
vt 0.631159 0.065106
vt 0.786140 0.855457
vt 0.914172 0.211509
vt 0.345334 0.653586
vt 0.913189 0.296626
vt 0.748964 0.736870
vt 0.872727 0.781966
vt 0.268475 0.693142
vt 0.132434 0.479486
vt 0.765093 0.650617
vt 0.103625 0.429703
vt 0.861013 0.688586
vt 0.200891 0.540686
vt 0.246560 0.478302
vt 0.269334 0.566182
vt 0.181073 0.416943
vt 0.241486 0.615175
vt 0.327276 0.602680
vt 0.089261 0.253650
vt 0.072215 0.351395
vt 0.484309 0.779060
vt 0.497218 0.893137
vt 0.220449 0.320373
vt 0.139932 0.310308
vt 0.282813 0.267516
vt 0.322431 0.845376
vt 0.188273 0.756831
vt 0.257395 0.409874
vt 0.280688 0.448472
vt 0.304809 0.365760
vt 0.325498 0.462266
vt 0.426098 0.483553
vt 0.352942 0.402766
vt 0.088760 0.814875
vt 0.384152 0.523763
vt 0.425390 0.550172
vt 0.853538 0.386482
vt 0.897377 0.352950
vt 0.322330 0.515197
vt 0.386345 0.586189
vt 0.411907 0.402640
vt 0.003232 0.915055
vt 0.364045 0.327055
vt 0.155944 0.966731
vt 0.722150 0.406799
vt 0.481737 0.443059
vt 0.442209 0.990394
vt 0.231399 0.931349
vt 0.019334 0.990655
vt 0.321344 0.725179
vt 0.166723 0.235827
vt 0.602932 0.961012
vt 0.536771 0.993087
vt 0.579601 0.839241
vt 0.494700 0.045189
vt 0.701114 0.862368
vt 0.739727 0.475052
vt 0.830434 0.547099
vt 0.002227 0.293611
vt 0.684696 0.922158
vt 0.231060 0.145553
vt 0.961095 0.801048
vt 0.902379 0.900571
vt 0.966633 0.690455
vt 0.884083 0.601094
vt 0.911961 0.027859
vt 0.792838 0.074730
vt 0.571258 0.621693
vt 0.953203 0.371752
vt 0.472013 0.480169
vt 0.998360 0.305560
vt 0.994714 0.185269
vt 0.317816 0.701868
vt 0.972156 0.033162
vn 0.859676 0.124697 -0.495386
vn 0.859676 0.124697 -0.495386
vn 0.859676 0.124697 -0.495386
vn 0.872474 0.409988 0.265892
vn 0.872474 0.409988 0.265892
vn 0.872474 0.409988 0.265892
vn 0.566569 0.627765 0.533770
vn 0.566569 0.627765 0.533770
vn 0.566569 0.627765 0.533770
vn 0.823024 0.167605 -0.542716
vn 0.823024 0.167605 -0.542716
vn 0.823024 0.167605 -0.542716
vn 0.855209 -0.436905 -0.278803
vn 0.855209 -0.436905 -0.278803
vn 0.855209 -0.436905 -0.278803
vn 0.907701 -0.391700 0.150500
vn 0.907701 -0.391700 0.150500
vn 0.907701 -0.391700 0.150500
vn 0.696627 0.365714 0.617224
vn 0.696627 0.365714 0.617224
vn 0.696627 0.365714 0.617224
vn 0.450113 -0.391811 -0.802423
vn 0.450113 -0.391811 -0.802423
vn 0.450113 -0.391811 -0.802423
vn 0.653211 0.452608 0.607010
vn 0.653211 0.452608 0.607010
vn 0.653211 0.452608 0.607010
vn 0.362310 0.666818 0.651218
vn 0.362310 0.666818 0.651218
vn 0.362310 0.666818 0.651218
vn 0.452897 0.653396 0.606596
vn 0.452897 0.653396 0.606596
vn 0.452897 0.653396 0.606596
vn 0.493203 0.004100 0.869905
vn 0.493203 0.004100 0.869905
vn 0.493203 0.004100 0.869905
vn 0.613822 0.543019 0.573021
vn 0.613822 0.543019 0.573021
vn 0.613822 0.543019 0.573021
vn 0.547007 0.323704 0.772010
vn 0.547007 0.323704 0.772010
vn 0.547007 0.323704 0.772010
vn 0.683901 0.174900 0.708301
vn 0.683901 0.174900 0.708301
vn 0.683901 0.174900 0.708301
vn 0.223004 0.585610 0.779314
vn 0.223004 0.585610 0.779314
vn 0.223004 0.585610 0.779314
vn -0.300305 0.181503 0.936415
vn -0.300305 0.181503 0.936415
vn -0.300305 0.181503 0.936415
vn 0.503407 0.461607 0.730411
vn 0.503407 0.461607 0.730411
vn 0.503407 0.461607 0.730411
vn 0.123102 0.633109 0.764211
vn 0.123102 0.633109 0.764211
vn 0.123102 0.633109 0.764211
vn 0.222604 0.640012 0.735413
vn 0.222604 0.640012 0.735413
vn 0.222604 0.640012 0.735413
vn 0.472106 0.381305 0.794810
vn 0.472106 0.381305 0.794810
vn 0.472106 0.381305 0.794810
vn -0.173396 0.283793 0.943078
vn -0.173396 0.283793 0.943078
vn -0.173396 0.283793 0.943078
vn -0.196608 0.221909 0.955040
vn -0.196608 0.221909 0.955040
vn -0.196608 0.221909 0.955040
vn -0.027200 0.813595 -0.580796
vn -0.027200 0.813595 -0.580796
vn -0.027200 0.813595 -0.580796
vn 0.322786 0.843164 -0.429981
vn 0.322786 0.843164 -0.429981
vn 0.322786 0.843164 -0.429981
vn 0.237310 0.816434 0.526422
vn 0.237310 0.816434 0.526422
vn 0.237310 0.816434 0.526422
vn 0.447508 0.752814 0.482709
vn 0.447508 0.752814 0.482709
vn 0.447508 0.752814 0.482709
vn 0.813118 0.448710 0.370808
vn 0.813118 0.448710 0.370808
vn 0.813118 0.448710 0.370808
vn 0.803565 0.420582 -0.421182
vn 0.803565 0.420582 -0.421182
vn 0.803565 0.420582 -0.421182
vn 0.741613 0.451208 -0.496409
vn 0.741613 0.451208 -0.496409
vn 0.741613 0.451208 -0.496409
vn -0.219593 0.836475 -0.502085
vn -0.219593 0.836475 -0.502085
vn -0.219593 0.836475 -0.502085
vn -0.803387 0.385894 -0.453493
vn -0.803387 0.385894 -0.453493
vn -0.803387 0.385894 -0.453493
vn -0.562499 0.541499 -0.624799
vn -0.562499 0.541499 -0.624799
vn -0.562499 0.541499 -0.624799
vn -0.086997 0.982867 0.162494
vn -0.086997 0.982867 0.162494
vn -0.086997 0.982867 0.162494
vn -0.401824 0.896853 0.184911
vn -0.401824 0.896853 0.184911
vn -0.401824 0.896853 0.184911
vn 0.306696 0.246297 -0.919389
vn 0.306696 0.246297 -0.919389
vn 0.306696 0.246297 -0.919389
vn 0.116304 0.116704 -0.986333
vn 0.116304 0.116704 -0.986333
vn 0.116304 0.116704 -0.986333
vn 0.438387 0.092897 -0.893973
vn 0.438387 0.092897 -0.893973
vn 0.438387 0.092897 -0.893973
vn 0.726013 0.591710 -0.350406
vn 0.726013 0.591710 -0.350406
vn 0.726013 0.591710 -0.350406
vn 0.593400 0.351300 -0.724200
vn 0.593400 0.351300 -0.724200
vn 0.593400 0.351300 -0.724200
vn 0.248392 -0.417286 -0.874170
vn 0.248392 -0.417286 -0.874170
vn 0.248392 -0.417286 -0.874170
vn 0.233705 -0.364207 -0.901518
vn 0.233705 -0.364207 -0.901518
vn 0.233705 -0.364207 -0.901518
vn 0.538175 -0.296486 -0.788963
vn 0.538175 -0.296486 -0.788963
vn 0.538175 -0.296486 -0.788963
vn 0.335692 -0.481888 -0.809380
vn 0.335692 -0.481888 -0.809380
vn 0.335692 -0.481888 -0.809380
vn -0.033500 -0.069800 -0.996998
vn -0.033500 -0.069800 -0.996998
vn -0.033500 -0.069800 -0.996998
vn -0.045398 -0.269389 -0.961961
vn -0.045398 -0.269389 -0.961961
vn -0.045398 -0.269389 -0.961961
vn -0.610913 -0.138903 -0.779417
vn -0.610913 -0.138903 -0.779417
vn -0.610913 -0.138903 -0.779417
vn -0.293497 -0.703194 -0.647594
vn -0.293497 -0.703194 -0.647594
vn -0.293497 -0.703194 -0.647594
vn -0.374814 -0.637824 -0.672826
vn -0.374814 -0.637824 -0.672826
vn -0.374814 -0.637824 -0.672826
vn -0.005200 -0.101403 -0.994832
vn -0.005200 -0.101403 -0.994832
vn -0.005200 -0.101403 -0.994832
vn 0.040200 0.095601 -0.994608
vn 0.040200 0.095601 -0.994608
vn 0.040200 0.095601 -0.994608
vn -0.366789 0.312990 -0.876073
vn -0.366789 0.312990 -0.876073
vn -0.366789 0.312990 -0.876073
vn -0.625897 0.298799 -0.720397
vn -0.625897 0.298799 -0.720397
vn -0.625897 0.298799 -0.720397
vn 0.211092 -0.928765 -0.304689
vn 0.211092 -0.928765 -0.304689
vn 0.211092 -0.928765 -0.304689
vn 0.197294 -0.646481 -0.736978
vn 0.197294 -0.646481 -0.736978
vn 0.197294 -0.646481 -0.736978
vn 0.567494 0.608494 0.554694
vn 0.567494 0.608494 0.554694
vn 0.567494 0.608494 0.554694
vn 0.567494 0.608494 0.554694
vn 0.379307 -0.726014 0.573611
vn 0.379307 -0.726014 0.573611
vn 0.379307 -0.726014 0.573611
vn 0.552495 -0.794193 0.252998
vn 0.552495 -0.794193 0.252998
vn 0.552495 -0.794193 0.252998
vn 0.437983 -0.700473 0.563478
vn 0.437983 -0.700473 0.563478
vn 0.437983 -0.700473 0.563478
vn 0.528923 -0.280612 0.800935
vn 0.528923 -0.280612 0.800935
vn 0.528923 -0.280612 0.800935
vn -0.265187 -0.932053 -0.246888
vn -0.265187 -0.932053 -0.246888
vn -0.265187 -0.932053 -0.246888
vn -0.173290 -0.768157 0.616365
vn -0.173290 -0.768157 0.616365
vn -0.173290 -0.768157 0.616365
vn -0.253298 -0.682495 0.685595
vn -0.253298 -0.682495 0.685595
vn -0.253298 -0.682495 0.685595
vn -0.582716 -0.385510 0.715419
vn -0.582716 -0.385510 0.715419
vn -0.582716 -0.385510 0.715419
vn -0.294313 -0.835336 -0.464320
vn -0.294313 -0.835336 -0.464320
vn -0.294313 -0.835336 -0.464320
vn -0.447114 -0.679222 -0.582019
vn -0.447114 -0.679222 -0.582019
vn -0.447114 -0.679222 -0.582019
vn -0.703315 -0.521212 -0.483411
vn -0.703315 -0.521212 -0.483411
vn -0.703315 -0.521212 -0.483411
vn -0.860090 0.032700 -0.509094
vn -0.860090 0.032700 -0.509094
vn -0.860090 0.032700 -0.509094
vn -0.704180 -0.521085 -0.482286
vn -0.704180 -0.521085 -0.482286
vn -0.704180 -0.521085 -0.482286
vn -0.955164 0.039799 -0.293389
vn -0.955164 0.039799 -0.293389
vn -0.955164 0.039799 -0.293389
vn -0.994644 0.014701 0.102305
vn -0.994644 0.014701 0.102305
vn -0.994644 0.014701 0.102305
vn -0.604128 0.020001 0.796637
vn -0.604128 0.020001 0.796637
vn -0.604128 0.020001 0.796637
vn -0.976215 -0.026300 -0.215203
vn -0.976215 -0.026300 -0.215203
vn -0.976215 -0.026300 -0.215203
vn -0.969085 0.145998 -0.198897
vn -0.969085 0.145998 -0.198897
vn -0.969085 0.145998 -0.198897
vn -0.890608 0.393604 0.227802
vn -0.890608 0.393604 0.227802
vn -0.890608 0.393604 0.227802
vn -0.432085 0.526381 0.732274
vn -0.432085 0.526381 0.732274
vn -0.432085 0.526381 0.732274
vn -0.989914 -0.034900 -0.137302
vn -0.989914 -0.034900 -0.137302
vn -0.989914 -0.034900 -0.137302
vn -0.763284 0.232995 -0.602587
vn -0.763284 0.232995 -0.602587
vn -0.763284 0.232995 -0.602587
vn -0.758594 0.227398 -0.610595
vn -0.758594 0.227398 -0.610595
vn -0.758594 0.227398 -0.610595
vn 0.550395 0.572195 0.607995
vn 0.550395 0.572195 0.607995
vn 0.550395 0.572195 0.607995
vn 0.690918 0.121103 -0.712718
vn 0.690918 0.121103 -0.712718
vn 0.690918 0.121103 -0.712718
vn 0.705416 0.596014 -0.383609
vn 0.705416 0.596014 -0.383609
vn 0.705416 0.596014 -0.383609
vn 0.787512 0.248204 0.564109
vn 0.787512 0.248204 0.564109
vn 0.787512 0.248204 0.564109
vn 0.838291 0.072399 0.540394
vn 0.838291 0.072399 0.540394
vn 0.838291 0.072399 0.540394
vn 0.775489 -0.178198 -0.605692
vn 0.775489 -0.178198 -0.605692
vn 0.775489 -0.178198 -0.605692
vn 0.371195 -0.337396 -0.865089
vn 0.371195 -0.337396 -0.865089
vn 0.371195 -0.337396 -0.865089
vn 0.460387 -0.574584 -0.676681
vn 0.460387 -0.574584 -0.676681
vn 0.460387 -0.574584 -0.676681
vn 0.448212 -0.395410 -0.801721
vn 0.448212 -0.395410 -0.801721
vn 0.448212 -0.395410 -0.801721
vn 0.449015 0.667922 0.593520
vn 0.449015 0.667922 0.593520
vn 0.449015 0.667922 0.593520
vn 0.462394 0.589993 0.661892
vn 0.462394 0.589993 0.661892
vn 0.462394 0.589993 0.661892
vn 0.350709 0.560914 0.749919
vn 0.350709 0.560914 0.749919
vn 0.350709 0.560914 0.749919
vn -0.294792 0.355990 0.886775
vn -0.294792 0.355990 0.886775
vn -0.294792 0.355990 0.886775
vn -0.294792 0.355990 0.886775
vn 0.463684 0.638578 0.614179
vn 0.463684 0.638578 0.614179
vn 0.463684 0.638578 0.614179
vn 0.473685 0.040299 0.879772
vn 0.473685 0.040299 0.879772
vn 0.473685 0.040299 0.879772
vn 0.021499 0.092796 0.995453
vn 0.021499 0.092796 0.995453
vn 0.021499 0.092796 0.995453
vn 0.154292 0.611368 0.776159
vn 0.154292 0.611368 0.776159
vn 0.154292 0.611368 0.776159
vn 0.094701 0.754006 0.650005
vn 0.094701 0.754006 0.650005
vn 0.094701 0.754006 0.650005
vn 0.690516 0.281207 0.666416
vn 0.690516 0.281207 0.666416
vn 0.690516 0.281207 0.666416
vn 0.690516 0.281207 0.666416
vn 0.464301 0.487101 0.739701
vn 0.464301 0.487101 0.739701
vn 0.464301 0.487101 0.739701
vn 0.540989 0.316794 0.779085
vn 0.540989 0.316794 0.779085
vn 0.540989 0.316794 0.779085
vn 0.442111 0.412810 0.796320
vn 0.442111 0.412810 0.796320
vn 0.442111 0.412810 0.796320
vn -0.924350 -0.178310 -0.337318
vn -0.924350 -0.178310 -0.337318
vn -0.924350 -0.178310 -0.337318
vn -0.924350 -0.178310 -0.337318
vn 0.792413 0.254604 0.554309
vn 0.792413 0.254604 0.554309
vn 0.792413 0.254604 0.554309
vn -0.074099 0.011400 0.997186
vn -0.074099 0.011400 0.997186
vn -0.074099 0.011400 0.997186
vn -0.293399 0.223499 0.929497
vn -0.293399 0.223499 0.929497
vn -0.293399 0.223499 0.929497
vn -0.196199 0.736995 0.646796
vn -0.196199 0.736995 0.646796
vn -0.196199 0.736995 0.646796
vn 0.520372 0.219088 0.825356
vn 0.520372 0.219088 0.825356
vn 0.520372 0.219088 0.825356
vn -0.059199 0.995880 0.068699
vn -0.059199 0.995880 0.068699
vn -0.059199 0.995880 0.068699
vn -0.196406 0.422914 -0.884629
vn -0.196406 0.422914 -0.884629
vn -0.196406 0.422914 -0.884629
vn 0.419891 0.741384 0.523489
vn 0.419891 0.741384 0.523489
vn 0.419891 0.741384 0.523489
vn 0.302896 0.947188 0.105299
vn 0.302896 0.947188 0.105299
vn 0.302896 0.947188 0.105299
vn -0.729608 0.513806 -0.451305
vn -0.729608 0.513806 -0.451305
vn -0.729608 0.513806 -0.451305
vn -0.848309 0.431204 -0.307303
vn -0.848309 0.431204 -0.307303
vn -0.848309 0.431204 -0.307303
vn -0.865220 0.491011 0.101502
vn -0.865220 0.491011 0.101502
vn -0.865220 0.491011 0.101502
vn -0.544088 0.313193 -0.778382
vn -0.544088 0.313193 -0.778382
vn -0.544088 0.313193 -0.778382
vn -0.741385 0.264895 -0.616587
vn -0.741385 0.264895 -0.616587
vn -0.741385 0.264895 -0.616587
vn -0.475484 0.732375 0.487383
vn -0.475484 0.732375 0.487383
vn -0.475484 0.732375 0.487383
vn -0.548315 0.780721 0.299708
vn -0.548315 0.780721 0.299708
vn -0.548315 0.780721 0.299708
vn 0.217694 -0.040599 -0.975172
vn 0.217694 -0.040599 -0.975172
vn 0.217694 -0.040599 -0.975172
vn 0.292886 -0.247888 -0.923455
vn 0.292886 -0.247888 -0.923455
vn 0.292886 -0.247888 -0.923455
vn -0.745699 -0.079700 -0.661499
vn -0.745699 -0.079700 -0.661499
vn -0.745699 -0.079700 -0.661499
vn -0.372509 -0.504812 -0.778718
vn -0.372509 -0.504812 -0.778718
vn -0.372509 -0.504812 -0.778718
vn -0.525595 -0.051200 -0.849193
vn -0.525595 -0.051200 -0.849193
vn -0.525595 -0.051200 -0.849193
vn -0.666023 0.230808 -0.709324
vn -0.666023 0.230808 -0.709324
vn -0.666023 0.230808 -0.709324
vn -0.248099 -0.826695 -0.504997
vn -0.248099 -0.826695 -0.504997
vn -0.248099 -0.826695 -0.504997
vn -0.239005 -0.829118 -0.505411
vn -0.239005 -0.829118 -0.505411
vn -0.239005 -0.829118 -0.505411
vn -0.010600 -0.956327 -0.292108
vn -0.010600 -0.956327 -0.292108
vn -0.010600 -0.956327 -0.292108
vn 0.360981 -0.680964 -0.637166
vn 0.360981 -0.680964 -0.637166
vn 0.360981 -0.680964 -0.637166
vn 0.292696 -0.360395 -0.885688
vn 0.292696 -0.360395 -0.885688
vn 0.292696 -0.360395 -0.885688
vn -0.038299 -0.967568 -0.249692
vn -0.038299 -0.967568 -0.249692
vn -0.038299 -0.967568 -0.249692
vn 0.518687 -0.263394 0.813380
vn 0.518687 -0.263394 0.813380
vn 0.518687 -0.263394 0.813380
vn -0.344001 -0.928504 -0.139801
vn -0.344001 -0.928504 -0.139801
vn -0.344001 -0.928504 -0.139801
vn -0.503992 -0.838587 -0.206797
vn -0.503992 -0.838587 -0.206797
vn -0.503992 -0.838587 -0.206797
vn -0.799837 -0.559226 0.218010
vn -0.799837 -0.559226 0.218010
vn -0.799837 -0.559226 0.218010
vn 0.309514 -0.680930 0.663729
vn 0.309514 -0.680930 0.663729
vn 0.309514 -0.680930 0.663729
vn -0.541611 0.018900 0.840417
vn -0.541611 0.018900 0.840417
vn -0.541611 0.018900 0.840417
vn -0.473609 -0.782915 -0.403408
vn -0.473609 -0.782915 -0.403408
vn -0.473609 -0.782915 -0.403408
vn -0.413593 -0.785187 -0.460892
vn -0.413593 -0.785187 -0.460892
vn -0.413593 -0.785187 -0.460892
vn -0.891683 -0.253095 -0.375293
vn -0.891683 -0.253095 -0.375293
vn -0.891683 -0.253095 -0.375293
vn -0.948742 -0.289013 0.127906
vn -0.948742 -0.289013 0.127906
vn -0.948742 -0.289013 0.127906
vn -0.965085 -0.128598 0.228196
vn -0.965085 -0.128598 0.228196
vn -0.965085 -0.128598 0.228196
vn -0.564106 0.080101 0.821808
vn -0.564106 0.080101 0.821808
vn -0.564106 0.080101 0.821808
vn -0.964001 0.094600 0.248500
vn -0.964001 0.094600 0.248500
vn -0.964001 0.094600 0.248500
vn -0.817775 0.553083 0.159195
vn -0.817775 0.553083 0.159195
vn -0.817775 0.553083 0.159195
vn -0.935385 0.344394 0.080299
vn -0.935385 0.344394 0.080299
vn -0.935385 0.344394 0.080299
vn -0.611111 0.060701 0.789214
vn -0.611111 0.060701 0.789214
vn -0.611111 0.060701 0.789214
vn -0.911135 0.204808 -0.357614
vn -0.911135 0.204808 -0.357614
vn -0.911135 0.204808 -0.357614
vn -0.910294 0.202599 -0.360997
vn -0.910294 0.202599 -0.360997
vn -0.910294 0.202599 -0.360997
s off
usemtl lambert8SG
f 1/106/1 2/2/2 3/3/3
f 3/93/4 4/4/5 1/1/6
f 4/4/7 3/93/8 5/5/9
f 3/3/10 2/2/11 6/6/12
f 7/7/13 1/106/14 8/8/15
f 1/1/16 9/9/17 8/99/18
f 10/10/19 11/11/20 4/4/21
f 12/12/22 7/7/23 13/13/24
f 14/14/25 15/15/26 16/16/27
f 5/5/28 14/14/29 17/17/30
f 16/16/31 18/84/32 17/17/33
f 19/19/34 11/91/35 20/85/36
f 11/11/37 17/17/38 20/20/39
f 21/21/40 15/15/41 22/22/42
f 23/23/43 22/22/44 24/24/45
f 21/21/46 25/25/47 26/83/48
f 27/80/49 28/28/50 26/26/51
f 29/29/52 21/21/53 22/22/54
f 29/29/55 30/30/56 21/21/57
f 25/25/58 21/21/59 30/30/60
f 31/31/61 32/32/62 15/15/63
f 32/86/64 31/82/65 28/28/66
f 33/33/67 32/86/68 28/28/69
f 34/34/70 35/35/71 36/104/72
f 36/104/73 35/35/74 37/105/75
f 38/38/76 30/30/77 29/29/78
f 38/38/79 23/23/80 37/105/81
f 23/23/82 39/39/83 37/105/84
f 39/94/85 40/40/86 37/37/87
f 37/37/88 40/40/89 36/36/90
f 35/35/91 34/34/92 41/41/93
f 41/41/94 42/110/95 43/43/96
f 42/110/97 41/41/98 34/34/99
f 38/38/100 41/41/101 30/30/102
f 43/43/103 30/30/104 41/41/105
f 44/44/106 45/45/107 40/40/108
f 36/36/109 45/45/110 46/101/111
f 40/40/112 45/45/113 36/36/114
f 40/40/115 39/94/116 6/6/117
f 6/6/118 44/44/119 40/40/120
f 47/103/121 48/48/122 49/96/123
f 47/103/124 50/50/125 48/48/126
f 48/48/127 44/44/128 12/12/129
f 49/96/130 48/48/131 12/12/132
f 51/102/133 45/45/134 50/50/135
f 50/50/136 47/103/137 51/102/138
f 52/52/139 53/53/140 51/51/141
f 47/47/142 49/49/143 54/54/144
f 47/47/145 54/54/146 52/52/147
f 45/45/148 51/102/149 55/100/150
f 55/100/151 46/101/152 45/45/153
f 55/55/154 34/111/155 46/46/156
f 56/56/157 55/55/158 53/53/159
f 57/57/160 58/58/161 8/97/162
f 13/13/163 58/95/164 49/96/165
f 3/93/166 39/39/167 24/24/168 5/5/169
f 59/59/170 57/92/171 60/60/172
f 8/98/173 9/90/174 57/92/175
f 9/90/176 60/60/177 57/92/178
f 9/90/179 11/91/180 60/60/181
f 61/61/182 62/62/183 59/89/184
f 19/19/185 63/88/186 59/59/187
f 63/88/188 19/19/189 64/64/190
f 63/88/191 64/64/192 65/65/193
f 62/62/194 61/61/195 54/54/196
f 54/54/197 66/66/198 52/52/199
f 67/67/200 66/66/201 68/68/202
f 67/67/203 69/69/204 52/52/205
f 66/66/206 67/67/207 52/52/208
f 70/70/209 69/69/210 71/71/211
f 71/71/212 72/79/213 70/70/214
f 72/72/215 33/33/216 28/28/217
f 73/73/218 69/69/219 70/70/220
f 74/74/221 73/73/222 70/70/223
f 74/107/224 75/75/225 76/76/226
f 75/75/227 27/27/228 25/25/229
f 73/73/230 77/77/231 69/69/232
f 56/56/233 53/53/234 77/77/235
f 56/56/236 77/77/237 78/78/238
f 5/5/239 10/10/240 4/4/241
f 6/6/242 2/2/243 44/44/244
f 39/94/245 3/3/246 6/6/247
f 4/4/248 11/11/249 1/1/250
f 9/9/251 1/1/252 11/11/253
f 7/7/254 2/2/255 1/106/256
f 12/12/257 44/44/258 2/2/259
f 7/7/260 8/8/261 13/13/262
f 12/12/263 2/2/264 7/7/265
f 16/16/266 17/17/267 14/14/268
f 5/5/269 17/17/270 10/10/271
f 24/24/272 14/14/273 5/5/274
f 33/33/275 64/64/276 18/18/277 32/86/278
f 17/17/279 18/84/280 20/20/281
f 19/19/282 20/85/283 18/18/284
f 18/18/285 64/64/286 19/19/287
f 16/16/288 15/15/289 32/32/290
f 32/32/291 18/84/292 16/16/293
f 22/22/294 15/15/295 14/14/296 24/24/297
f 11/11/298 10/10/299 17/17/300
f 21/21/301 26/83/302 15/15/303
f 22/22/304 23/23/305 29/29/306
f 71/71/307 69/69/308 67/67/309 68/68/310
f 24/24/311 39/39/312 23/23/313
f 26/26/314 28/28/315 31/82/316
f 26/26/317 25/87/318 27/80/319
f 25/25/320 30/30/321 75/75/322
f 31/31/323 15/15/324 26/83/325
f 35/35/326 41/41/327 38/38/328
f 36/104/329 46/112/330 34/34/331
f 38/38/332 29/29/333 23/23/334
f 37/105/335 35/35/336 38/38/337
f 43/43/338 42/110/339 78/109/340
f 78/109/341 74/107/342 43/43/343
f 74/107/344 76/76/345 43/43/346
f 34/111/347 55/55/348 42/42/349
f 56/56/350 78/78/351 42/42/352
f 30/30/353 43/43/354 76/76/355
f 76/76/356 75/75/357 30/30/358
f 50/50/359 45/45/360 44/44/361
f 44/44/362 48/48/363 50/50/364
f 52/52/365 77/77/366 53/53/367
f 52/52/368 51/51/369 47/47/370
f 55/55/371 51/51/372 53/53/373
f 56/56/374 42/42/375 55/55/376
f 62/62/377 49/49/378 58/58/379
f 62/62/380 54/54/381 49/49/382
f 62/62/383 58/58/384 57/57/385
f 58/95/386 13/13/387 8/8/388
f 13/13/389 49/96/390 12/12/391
f 62/62/392 57/57/393 59/89/394
f 60/60/395 11/91/396 19/19/397
f 61/61/398 59/89/399 63/63/400
f 68/68/401 61/61/402 63/63/403
f 63/63/404 65/81/405 68/68/406
f 59/59/407 60/60/408 19/19/409
f 64/64/410 33/33/411 65/65/412
f 61/61/413 68/68/414 66/66/415
f 66/66/416 54/54/417 61/61/418
f 52/52/419 69/69/420 77/77/421
f 65/81/422 71/71/423 68/68/424
f 71/71/425 65/81/426 72/79/427
f 65/65/428 33/33/429 72/72/430
f 70/70/431 72/79/432 27/108/433
f 74/107/434 27/27/435 75/75/436
f 70/70/437 27/108/438 74/74/439
f 27/80/440 72/72/441 28/28/442
f 74/74/443 78/78/444 73/73/445
f 78/78/446 77/77/447 73/73/448
