# This file uses centimeters as units for non-parametric coordinates.

mtllib 8.mtl
v -0.425048 0.048546 0.196255
v -0.429303 0.127488 0.154920
v -0.455043 -0.115031 0.069966
v -0.296678 -0.130140 0.364027
v -0.437305 -0.197043 0.168351
v -0.333414 -0.345117 0.262124
v -0.423794 0.100123 -0.145352
v -0.355806 0.301014 0.018514
v -0.382947 0.215050 -0.126822
v -0.303566 0.354825 0.212624
v -0.299269 0.196594 0.301191
v -0.317093 0.228610 -0.233473
v -0.332715 0.086388 -0.308824
v -0.252816 0.370962 -0.133446
v -0.388236 -0.031028 -0.244535
v -0.386118 -0.291773 -0.104783
v -0.276347 -0.173454 -0.345781
v -0.188595 -0.315367 -0.279455
v -0.022693 -0.534841 0.166947
v -0.255723 -0.456543 0.215447
v -0.218846 -0.439748 -0.016752
v -0.345319 -0.396207 0.115821
v 0.050795 -0.416265 0.331534
v -0.100419 -0.295623 0.470268
v -0.127175 -0.449964 0.353700
v 0.068830 -0.374159 -0.305939
v -0.028964 -0.484487 -0.096353
v -0.026795 -0.306506 -0.362053
v 0.169464 -0.490756 -0.104678
v 0.166076 -0.538266 0.070602
v 0.374401 -0.395180 -0.013007
v 0.247889 -0.369972 -0.218632
v 0.430496 -0.237549 -0.121460
v 0.240198 -0.170625 -0.358421
v 0.295963 -0.449099 0.099942
v 0.217584 -0.285966 0.347091
v 0.345522 -0.220162 0.284471
v -0.003796 0.050768 0.531752
v -0.152295 0.014135 0.465523
v 0.016924 -0.107296 0.534957
v -0.023125 -0.270747 0.474665
v 0.166922 -0.139289 0.470467
v 0.282808 0.004103 0.383574
v 0.127413 0.013906 0.498177
v 0.365801 -0.065365 0.297899
v 0.127766 0.172766 0.455844
v -0.032356 0.288300 0.450094
v 0.095519 0.326370 0.376669
v 0.227645 0.220652 0.347055
v -0.195925 0.403466 0.290833
v -0.206181 0.248432 0.373756
v 0.444587 0.084612 -0.045829
v 0.337004 0.242211 -0.263794
v 0.398272 0.228752 0.019830
v 0.416035 0.007729 -0.234043
v 0.243142 0.041793 -0.386383
v 0.436578 0.077893 0.107256
v 0.341431 0.225216 0.221583
v 0.283581 0.313959 0.187437
v 0.426115 -0.199534 0.120849
v 0.085381 0.448235 -0.253770
v 0.143483 0.319405 -0.344312
v -0.011144 0.356243 -0.371494
v 0.212909 0.386334 -0.260771
v -0.220311 0.445970 0.032065
v -0.018042 0.530133 -0.012877
v -0.131638 0.425805 -0.215466
v -0.203670 0.256188 -0.334854
v -0.116756 0.460762 0.294446
v -0.014048 0.471218 0.237616
v 0.158335 0.408974 0.204479
v 0.159332 0.461331 0.000236
v 0.097741 -0.153946 -0.414469
v 0.059959 -0.034204 -0.445366
v -0.143400 0.030925 -0.450168
v -0.142598 -0.149110 -0.421134
v 0.063196 0.173476 -0.414900
v 0.343791 0.308284 -0.045211
vt 0.246107 0.231906
vt 0.213802 0.257306
vt 0.225367 0.138263
vt 0.369726 0.200628
vt 0.283196 0.125225
vt 0.368575 0.089001
vt 0.092993 0.188597
vt 0.631830 0.680427
vt 0.548032 0.662463
vt 0.734743 0.703211
vt 0.278535 0.327454
vt 0.500995 0.703984
vt 0.102080 0.456878
vt 0.572873 0.754271
vt 0.075882 0.110344
vt 0.758887 0.430037
vt 0.047194 0.016164
vt 0.870875 0.488031
vt 0.700862 0.671428
vt 0.399959 0.031588
vt 0.744416 0.542972
vt 0.321755 0.028526
vt 0.459742 0.563192
vt 0.424314 0.647136
vt 0.593680 0.648659
vt 0.008846 0.765794
vt 0.812924 0.613361
vt 0.942878 0.536365
vt 0.858863 0.692367
vt 0.783578 0.733289
vt 0.591254 0.433682
vt 0.944600 0.695010
vt 0.160679 0.913812
vt 0.136456 0.771002
vt 0.822504 0.800296
vt 0.538180 0.581900
vt 0.987977 0.180030
vt 0.466675 0.349897
vt 0.409844 0.296884
vt 0.511687 0.289313
vt 0.455732 0.645432
vt 0.543656 0.658026
vt 0.895490 0.100337
vt 0.526324 0.372803
vt 0.916208 0.162975
vt 0.821489 0.010883
vt 0.382825 0.433762
vt 0.405377 0.500484
vt 0.789851 0.077268
vt 0.261929 0.434400
vt 0.316102 0.373178
vt 0.799427 0.300042
vt 0.338607 0.727050
vt 0.747179 0.243953
vt 0.258320 0.823121
vt 0.221303 0.719563
vt 0.828102 0.235277
vt 0.778358 0.153811
vt 0.728459 0.144214
vt 0.954704 0.268621
vt 0.537928 0.925573
vt 0.319442 0.618652
vt 0.293906 0.540821
vt 0.588544 0.313669
vt 0.658099 0.770211
vt 0.650855 0.872548
vt 0.546136 0.822469
vt 0.206100 0.476251
vt 0.274847 0.481044
vt 0.769023 0.859131
vt 0.673897 0.097789
vt 0.604973 0.175519
vt 0.107948 0.705480
vt 0.146474 0.660525
vt 0.126080 0.566209
vt 0.964489 0.440293
vt 0.233497 0.615435
vt 0.694286 0.250801
vt 0.013053 0.701575
vt 0.049739 0.606463
vt 0.673042 0.357125
vt 0.526531 0.990686
vt 0.974118 0.046676
vt 0.596324 0.567026
vt 0.543767 0.464506
vt 0.894228 0.800309
vt 0.662049 0.961287
vt 0.932914 0.598160
vt 0.057189 0.851665
vt 0.192127 0.021719
vt 0.664962 0.504385
vt 0.897138 0.407676
vt 0.618328 0.029277
vt 0.731955 0.018579
vt 0.988986 0.803305
vt 0.666827 0.421939
vt 0.927476 0.386952
vt 0.793562 0.394638
vt 0.641157 0.512593
vt 0.476714 0.442607
vt 0.903489 0.010039
vt 0.484019 0.447217
vt 0.416860 0.493622
vt 0.484833 0.075325
vt 0.636686 0.569620
vt 0.789240 0.804600
vt 0.296661 0.533159
vt 0.584997 0.321841
vt 0.499218 0.173250
vt 0.495484 0.701074
vt 0.375859 0.642024
vt 0.014771 0.228160
vt 0.459892 0.769204
vt 0.210688 0.383500
vt 0.465525 0.880263
vt 0.469347 0.961844
vt 0.391499 0.578388
vt 0.074862 0.245188
vt 0.125486 0.316773
vt 0.003824 0.546446
vt 0.014863 0.145975
vt 0.166591 0.412895
vn -0.982799 0.041300 0.180000
vn -0.982799 0.041300 0.180000
vn -0.982799 0.041300 0.180000
vn -0.807400 -0.026700 0.589400
vn -0.807400 -0.026700 0.589400
vn -0.807400 -0.026700 0.589400
vn -0.775705 -0.157201 0.611204
vn -0.775705 -0.157201 0.611204
vn -0.775705 -0.157201 0.611204
vn -0.992904 0.115401 -0.028700
vn -0.992904 0.115401 -0.028700
vn -0.992904 0.115401 -0.028700
vn -0.931103 0.362501 -0.040500
vn -0.931103 0.362501 -0.040500
vn -0.931103 0.362501 -0.040500
vn -0.881310 0.459605 0.109801
vn -0.881310 0.459605 0.109801
vn -0.881310 0.459605 0.109801
vn -0.779356 0.257185 0.571367
vn -0.779356 0.257185 0.571367
vn -0.779356 0.257185 0.571367
vn -0.779201 0.289900 0.555701
vn -0.779201 0.289900 0.555701
vn -0.779201 0.289900 0.555701
vn -0.808160 0.342583 -0.479076
vn -0.808160 0.342583 -0.479076
vn -0.808160 0.342583 -0.479076
vn -0.752689 0.618591 -0.225397
vn -0.752689 0.618591 -0.225397
vn -0.752689 0.618591 -0.225397
vn -0.812906 0.362403 -0.455903
vn -0.812906 0.362403 -0.455903
vn -0.812906 0.362403 -0.455903
vn -0.960910 -0.136801 -0.240702
vn -0.960910 -0.136801 -0.240702
vn -0.960910 -0.136801 -0.240702
vn -0.564917 -0.609318 -0.556417
vn -0.564917 -0.609318 -0.556417
vn -0.564917 -0.609318 -0.556417
vn -0.338713 -0.933037 -0.121305
vn -0.338713 -0.933037 -0.121305
vn -0.338713 -0.933037 -0.121305
vn -0.446009 -0.884819 -0.134803
vn -0.446009 -0.884819 -0.134803
vn -0.446009 -0.884819 -0.134803
vn 0.210811 -0.612131 0.762138
vn 0.210811 -0.612131 0.762138
vn 0.210811 -0.612131 0.762138
vn -0.559470 -0.620367 0.549671
vn -0.559470 -0.620367 0.549671
vn -0.559470 -0.620367 0.549671
vn -0.251301 -0.803204 -0.540103
vn -0.251301 -0.803204 -0.540103
vn -0.251301 -0.803204 -0.540103
vn -0.466006 -0.777711 -0.421906
vn -0.466006 -0.777711 -0.421906
vn -0.466006 -0.777711 -0.421906
vn -0.041502 -0.964145 -0.262112
vn -0.041502 -0.964145 -0.262112
vn -0.041502 -0.964145 -0.262112
vn 0.530693 -0.737890 -0.416994
vn 0.530693 -0.737890 -0.416994
vn 0.530693 -0.737890 -0.416994
vn 0.645025 -0.421917 -0.637125
vn 0.645025 -0.421917 -0.637125
vn 0.645025 -0.421917 -0.637125
vn 0.246308 -0.823028 0.511817
vn 0.246308 -0.823028 0.511817
vn 0.246308 -0.823028 0.511817
vn 0.220701 -0.842505 0.491403
vn 0.220701 -0.842505 0.491403
vn 0.220701 -0.842505 0.491403
vn 0.464320 -0.664329 0.585725
vn 0.464320 -0.664329 0.585725
vn 0.464320 -0.664329 0.585725
vn 0.396994 -0.751589 0.526792
vn 0.396994 -0.751589 0.526792
vn 0.396994 -0.751589 0.526792
vn 0.578884 -0.583984 0.569084
vn 0.578884 -0.583984 0.569084
vn 0.578884 -0.583984 0.569084
vn -0.395985 -0.052298 0.916766
vn -0.395985 -0.052298 0.916766
vn -0.395985 -0.052298 0.916766
vn -0.522607 -0.074501 0.849312
vn -0.522607 -0.074501 0.849312
vn -0.522607 -0.074501 0.849312
vn -0.657796 0.137199 0.740595
vn -0.657796 0.137199 0.740595
vn -0.657796 0.137199 0.740595
vn -0.615192 -0.249397 0.747890
vn -0.615192 -0.249397 0.747890
vn -0.615192 -0.249397 0.747890
vn 0.291192 -0.393089 0.872175
vn 0.291192 -0.393089 0.872175
vn 0.291192 -0.393089 0.872175
vn 0.593789 0.007600 0.804585
vn 0.593789 0.007600 0.804585
vn 0.593789 0.007600 0.804585
vn 0.646821 -0.149605 0.747824
vn 0.646821 -0.149605 0.747824
vn 0.646821 -0.149605 0.747824
vn 0.362392 -0.553487 0.749883
vn 0.362392 -0.553487 0.749883
vn 0.362392 -0.553487 0.749883
vn 0.374895 -0.517494 0.769190
vn 0.374895 -0.517494 0.769190
vn 0.374895 -0.517494 0.769190
vn 0.304303 0.244702 0.920609
vn 0.304303 0.244702 0.920609
vn 0.304303 0.244702 0.920609
vn 0.212797 0.340395 0.915887
vn 0.212797 0.340395 0.915887
vn 0.212797 0.340395 0.915887
vn 0.321704 0.486307 0.812411
vn 0.321704 0.486307 0.812411
vn 0.321704 0.486307 0.812411
vn 0.535313 0.473112 0.699718
vn 0.535313 0.473112 0.699718
vn 0.535313 0.473112 0.699718
vn -0.443705 0.445305 0.777708
vn -0.443705 0.445305 0.777708
vn -0.443705 0.445305 0.777708
vn -0.436410 0.245105 0.865719
vn -0.436410 0.245105 0.865719
vn -0.436410 0.245105 0.865719
vn 0.910076 0.373890 -0.178795
vn 0.910076 0.373890 -0.178795
vn 0.910076 0.373890 -0.178795
vn 0.669863 0.133093 -0.730459
vn 0.669863 0.133093 -0.730459
vn 0.669863 0.133093 -0.730459
vn 0.925689 0.279697 -0.254697
vn 0.925689 0.279697 -0.254697
vn 0.925689 0.279697 -0.254697
vn 0.862655 0.194912 0.466729
vn 0.862655 0.194912 0.466729
vn 0.862655 0.194912 0.466729
vn 0.783459 0.218488 0.581769
vn 0.783459 0.218488 0.581769
vn 0.783459 0.218488 0.581769
vn 0.773105 0.591804 0.228202
vn 0.773105 0.591804 0.228202
vn 0.773105 0.591804 0.228202
vn 0.820591 -0.454195 0.346896
vn 0.820591 -0.454195 0.346896
vn 0.820591 -0.454195 0.346896
vn 0.953221 -0.295507 0.063601
vn 0.953221 -0.295507 0.063601
vn 0.953221 -0.295507 0.063601
vn 0.941916 -0.019100 0.335306
vn 0.941916 -0.019100 0.335306
vn 0.941916 -0.019100 0.335306
vn 0.893969 -0.153595 0.420985
vn 0.893969 -0.153595 0.420985
vn 0.893969 -0.153595 0.420985
vn 0.998428 -0.049701 0.025901
vn 0.998428 -0.049701 0.025901
vn 0.998428 -0.049701 0.025901
vn 0.989186 -0.008900 -0.146398
vn 0.989186 -0.008900 -0.146398
vn 0.989186 -0.008900 -0.146398
vn 0.277801 0.633102 -0.722502
vn 0.277801 0.633102 -0.722502
vn 0.277801 0.633102 -0.722502
vn 0.266701 0.631802 -0.727803
vn 0.266701 0.631802 -0.727803
vn 0.266701 0.631802 -0.727803
vn -0.416092 0.882084 -0.220896
vn -0.416092 0.882084 -0.220896
vn -0.416092 0.882084 -0.220896
vn -0.712117 0.681416 -0.169004
vn -0.712117 0.681416 -0.169004
vn -0.712117 0.681416 -0.169004
vn -0.449278 0.633870 -0.629570
vn -0.449278 0.633870 -0.629570
vn -0.449278 0.633870 -0.629570
vn -0.612405 0.620605 -0.489704
vn -0.612405 0.620605 -0.489704
vn -0.612405 0.620605 -0.489704
vn -0.397096 0.500195 0.769493
vn -0.397096 0.500195 0.769493
vn -0.397096 0.500195 0.769493
vn -0.567380 0.764773 0.305289
vn -0.567380 0.764773 0.305289
vn -0.567380 0.764773 0.305289
vn -0.688599 0.339800 0.640599
vn -0.688599 0.339800 0.640599
vn -0.688599 0.339800 0.640599
vn -0.650095 0.391397 0.651295
vn -0.650095 0.391397 0.651295
vn -0.650095 0.391397 0.651295
vn 0.369500 0.899700 0.232400
vn 0.369500 0.899700 0.232400
vn 0.369500 0.899700 0.232400
vn 0.377214 0.773830 0.508819
vn 0.377214 0.773830 0.508819
vn 0.377214 0.773830 0.508819
vn 0.561314 0.647516 0.515413
vn 0.561314 0.647516 0.515413
vn 0.561314 0.647516 0.515413
vn 0.585105 0.593905 0.552204
vn 0.585105 0.593905 0.552204
vn 0.585105 0.593905 0.552204
vn 0.189696 -0.453990 -0.870580
vn 0.189696 -0.453990 -0.870580
vn 0.189696 -0.453990 -0.870580
vn 0.351391 -0.126997 -0.927576
vn 0.351391 -0.126997 -0.927576
vn 0.351391 -0.126997 -0.927576
vn 0.645078 -0.108496 -0.756375
vn 0.645078 -0.108496 -0.756375
vn 0.645078 -0.108496 -0.756375
vn -0.465909 -0.142903 -0.873217
vn -0.465909 -0.142903 -0.873217
vn -0.465909 -0.142903 -0.873217
vn 0.069299 0.143699 -0.987192
vn 0.069299 0.143699 -0.987192
vn 0.069299 0.143699 -0.987192
vn -0.522723 0.273512 -0.807435
vn -0.522723 0.273512 -0.807435
vn -0.522723 0.273512 -0.807435
vn -0.661828 0.406417 -0.629927
vn -0.661828 0.406417 -0.629927
vn -0.661828 0.406417 -0.629927
vn -0.979727 0.026301 0.198605
vn -0.979727 0.026301 0.198605
vn -0.979727 0.026301 0.198605
vn -0.952004 -0.296601 -0.075600
vn -0.952004 -0.296601 -0.075600
vn -0.952004 -0.296601 -0.075600
vn -0.910226 -0.413212 -0.027301
vn -0.910226 -0.413212 -0.027301
vn -0.910226 -0.413212 -0.027301
vn -0.859107 -0.457404 0.229602
vn -0.859107 -0.457404 0.229602
vn -0.859107 -0.457404 0.229602
vn -0.938679 0.341392 -0.048299
vn -0.938679 0.341392 -0.048299
vn -0.938679 0.341392 -0.048299
vn -0.860213 0.138002 -0.490907
vn -0.860213 0.138002 -0.490907
vn -0.860213 0.138002 -0.490907
vn -0.720779 0.585783 -0.370589
vn -0.720779 0.585783 -0.370589
vn -0.720779 0.585783 -0.370589
vn -0.969176 -0.089098 -0.229694
vn -0.969176 -0.089098 -0.229694
vn -0.969176 -0.089098 -0.229694
vn -0.814872 -0.278990 -0.508083
vn -0.814872 -0.278990 -0.508083
vn -0.814872 -0.278990 -0.508083
vn -0.293896 -0.940088 -0.172798
vn -0.293896 -0.940088 -0.172798
vn -0.293896 -0.940088 -0.172798
vn -0.253104 -0.926214 0.279404
vn -0.253104 -0.926214 0.279404
vn -0.253104 -0.926214 0.279404
vn -0.542494 -0.444395 0.712891
vn -0.542494 -0.444395 0.712891
vn -0.542494 -0.444395 0.712891
vn -0.729599 -0.624999 0.277600
vn -0.729599 -0.624999 0.277600
vn -0.729599 -0.624999 0.277600
vn -0.232798 -0.807092 -0.542594
vn -0.232798 -0.807092 -0.542594
vn -0.232798 -0.807092 -0.542594
vn -0.554273 -0.787261 -0.270187
vn -0.554273 -0.787261 -0.270187
vn -0.554273 -0.787261 -0.270187
vn -0.374297 -0.820694 -0.431697
vn -0.374297 -0.820694 -0.431697
vn -0.374297 -0.820694 -0.431697
vn -0.047899 -0.874481 -0.482689
vn -0.047899 -0.874481 -0.482689
vn -0.047899 -0.874481 -0.482689
vn 0.303609 -0.750722 -0.586718
vn 0.303609 -0.750722 -0.586718
vn 0.303609 -0.750722 -0.586718
vn 0.384119 -0.520126 -0.762838
vn 0.384119 -0.520126 -0.762838
vn 0.384119 -0.520126 -0.762838
vn -0.111704 -0.976538 -0.184107
vn -0.111704 -0.976538 -0.184107
vn -0.111704 -0.976538 -0.184107
vn 0.391598 0.905995 -0.160699
vn 0.391598 0.905995 -0.160699
vn 0.391598 0.905995 -0.160699
vn 0.391598 0.905995 -0.160699
vn 0.817478 -0.458188 0.348991
vn 0.817478 -0.458188 0.348991
vn 0.817478 -0.458188 0.348991
vn -0.434113 -0.038701 0.900027
vn -0.434113 -0.038701 0.900027
vn -0.434113 -0.038701 0.900027
vn 0.062501 -0.358807 0.931317
vn 0.062501 -0.358807 0.931317
vn 0.062501 -0.358807 0.931317
vn 0.165994 -0.647377 0.743874
vn 0.165994 -0.647377 0.743874
vn 0.165994 -0.647377 0.743874
vn 0.381721 -0.068304 0.921750
vn 0.381721 -0.068304 0.921750
vn 0.381721 -0.068304 0.921750
vn 0.688489 -0.123298 0.714689
vn 0.688489 -0.123298 0.714689
vn 0.688489 -0.123298 0.714689
vn 0.562297 -0.409898 0.718196
vn 0.562297 -0.409898 0.718196
vn 0.562297 -0.409898 0.718196
vn 0.261712 0.053803 0.963645
vn 0.261712 0.053803 0.963645
vn 0.261712 0.053803 0.963645
vn 0.589123 0.206808 0.781130
vn 0.589123 0.206808 0.781130
vn 0.589123 0.206808 0.781130
vn 0.640966 0.283585 0.713262
vn 0.640966 0.283585 0.713262
vn 0.640966 0.283585 0.713262
vn 0.703967 0.288787 0.648870
vn 0.703967 0.288787 0.648870
vn 0.703967 0.288787 0.648870
vn 0.593183 0.586984 0.550985
vn 0.593183 0.586984 0.550985
vn 0.593183 0.586984 0.550985
vn -0.443783 0.236491 0.864366
vn -0.443783 0.236491 0.864366
vn -0.443783 0.236491 0.864366
vn -0.656019 0.139604 0.741721
vn -0.656019 0.139604 0.741721
vn -0.656019 0.139604 0.741721
vn -0.718673 0.125795 0.683875
vn -0.718673 0.125795 0.683875
vn -0.718673 0.125795 0.683875
vn 0.182401 0.706404 0.683903
vn 0.182401 0.706404 0.683903
vn 0.182401 0.706404 0.683903
vn 0.871669 0.460984 -0.166394
vn 0.871669 0.460984 -0.166394
vn 0.871669 0.460984 -0.166394
vn 0.737580 0.639682 -0.216294
vn 0.737580 0.639682 -0.216294
vn 0.737580 0.639682 -0.216294
vn 0.958141 0.279412 0.062403
vn 0.958141 0.279412 0.062403
vn 0.958141 0.279412 0.062403
vn 0.739395 0.649996 0.175499
vn 0.739395 0.649996 0.175499
vn 0.739395 0.649996 0.175499
vn 0.890437 0.375316 0.257411
vn 0.890437 0.375316 0.257411
vn 0.890437 0.375316 0.257411
vn 0.998094 -0.035200 0.050700
vn 0.998094 -0.035200 0.050700
vn 0.998094 -0.035200 0.050700
vn 0.717417 -0.255206 -0.648215
vn 0.717417 -0.255206 -0.648215
vn 0.717417 -0.255206 -0.648215
vn 0.667889 -0.568291 -0.480592
vn 0.667889 -0.568291 -0.480592
vn 0.667889 -0.568291 -0.480592
vn -0.161095 0.911272 -0.378988
vn -0.161095 0.911272 -0.378988
vn -0.161095 0.911272 -0.378988
vn -0.177199 0.840694 -0.511697
vn -0.177199 0.840694 -0.511697
vn -0.177199 0.840694 -0.511697
vn 0.621517 0.777521 -0.095803
vn 0.621517 0.777521 -0.095803
vn 0.621517 0.777521 -0.095803
vn 0.488498 0.436398 -0.755597
vn 0.488498 0.436398 -0.755597
vn 0.488498 0.436398 -0.755597
vn -0.537911 0.802517 -0.258105
vn -0.537911 0.802517 -0.258105
vn -0.537911 0.802517 -0.258105
vn -0.603681 0.614180 -0.508284
vn -0.603681 0.614180 -0.508284
vn -0.603681 0.614180 -0.508284
vn -0.365107 0.926418 0.091902
vn -0.365107 0.926418 0.091902
vn -0.365107 0.926418 0.091902
vn 0.027299 0.973163 0.228491
vn 0.027299 0.973163 0.228491
vn 0.027299 0.973163 0.228491
vn 0.251995 0.762585 0.595788
vn 0.251995 0.762585 0.595788
vn 0.251995 0.762585 0.595788
vn -0.730872 0.682474 0.007500
vn -0.730872 0.682474 0.007500
vn -0.730872 0.682474 0.007500
vn -0.540697 0.824495 0.166899
vn -0.540697 0.824495 0.166899
vn -0.540697 0.824495 0.166899
vn 0.340010 0.916628 0.210206
vn 0.340010 0.916628 0.210206
vn 0.340010 0.916628 0.210206
vn 0.609291 0.767389 0.199697
vn 0.609291 0.767389 0.199697
vn 0.609291 0.767389 0.199697
vn 0.652987 0.742185 0.150897
vn 0.652987 0.742185 0.150897
vn 0.652987 0.742185 0.150897
vn 0.251798 0.136599 -0.958091
vn 0.251798 0.136599 -0.958091
vn 0.251798 0.136599 -0.958091
vn 0.518490 -0.841984 -0.149097
vn 0.518490 -0.841984 -0.149097
vn 0.518490 -0.841984 -0.149097
vn 0.518490 -0.841984 -0.149097
vn 0.236505 0.314507 -0.919321
vn 0.236505 0.314507 -0.919321
vn 0.236505 0.314507 -0.919321
vn 0.331705 0.256604 -0.907814
vn 0.331705 0.256604 -0.907814
vn 0.331705 0.256604 -0.907814
vn 0.464679 0.293387 -0.835462
vn 0.464679 0.293387 -0.835462
vn 0.464679 0.293387 -0.835462
vn 0.022000 -0.243300 -0.969701
vn 0.022000 -0.243300 -0.969701
vn 0.022000 -0.243300 -0.969701
vn 0.019300 -0.338908 -0.940622
vn 0.019300 -0.338908 -0.940622
vn 0.019300 -0.338908 -0.940622
vn 0.279798 -0.453696 -0.846093
vn 0.279798 -0.453696 -0.846093
vn 0.279798 -0.453696 -0.846093
vn 0.349920 -0.129007 -0.927854
vn 0.349920 -0.129007 -0.927854
vn 0.349920 -0.129007 -0.927854
vn -0.027701 -0.159307 -0.986840
vn -0.027701 -0.159307 -0.986840
vn -0.027701 -0.159307 -0.986840
vn -0.601322 -0.016801 -0.798830
vn -0.601322 -0.016801 -0.798830
vn -0.601322 -0.016801 -0.798830
vn -0.706124 -0.052702 -0.706124
vn -0.706124 -0.052702 -0.706124
vn -0.706124 -0.052702 -0.706124
vn -0.356694 -0.546791 -0.757488
vn -0.356694 -0.546791 -0.757488
vn -0.356694 -0.546791 -0.757488
vn -0.327607 -0.558711 -0.761916
vn -0.327607 -0.558711 -0.761916
vn -0.327607 -0.558711 -0.761916
vn 0.005200 0.233109 -0.972437
vn 0.005200 0.233109 -0.972437
vn 0.005200 0.233109 -0.972437
vn -0.348095 0.351695 -0.868988
vn -0.348095 0.351695 -0.868988
vn -0.348095 0.351695 -0.868988
s off
usemtl lambert9SG
f 1/1/1 2/2/2 3/3/3
f 4/4/4 1/1/5 5/5/6
f 4/4/7 5/5/8 6/6/9
f 2/2/10 7/7/11 3/3/12
f 8/119/13 9/118/14 2/2/15
f 2/2/16 10/114/17 8/119/18
f 2/2/19 1/1/20 11/11/21
f 10/114/22 2/2/23 11/11/24
f 7/7/25 12/112/26 13/121/27
f 8/8/28 14/14/29 9/9/30
f 12/112/31 7/7/32 9/118/33
f 15/15/34 16/90/35 3/3/36
f 17/92/37 18/18/38 16/16/39
f 19/19/40 20/105/41 21/21/42
f 21/21/43 20/105/44 22/91/45
f 23/23/46 24/24/47 25/117/48
f 20/20/49 25/104/50 6/6/51
f 26/88/52 27/27/53 28/28/54
f 21/21/55 16/16/56 18/18/57
f 29/29/58 30/30/59 27/27/60
f 31/86/61 29/29/62 32/32/63
f 33/33/64 32/89/65 34/34/66
f 30/102/67 25/117/68 19/103/69
f 25/117/70 30/102/71 23/23/72
f 23/23/73 35/85/74 36/36/75
f 23/23/76 30/102/77 35/85/78
f 35/85/79 37/84/80 36/36/81
f 24/109/82 38/38/83 39/39/84
f 39/39/85 4/4/86 24/109/87
f 4/4/88 39/39/89 11/11/90
f 6/6/91 24/109/92 4/4/93
f 40/110/94 41/41/95 42/42/96
f 43/43/97 44/101/98 42/83/99
f 43/43/100 37/37/101 45/45/102
f 41/41/103 23/23/104 36/36/105
f 36/36/106 42/42/107 41/41/108
f 44/44/109 46/100/110 38/38/111
f 46/100/112 47/47/113 38/38/114
f 48/48/115 47/47/116 46/100/117
f 46/46/118 49/49/119 48/94/120
f 47/47/121 50/50/122 51/51/123
f 51/51/124 38/38/125 47/47/126
f 52/52/127 53/81/128 54/54/129
f 55/55/130 56/56/131 53/53/132
f 53/81/133 52/52/134 55/98/135
f 57/57/136 58/58/137 45/45/138
f 58/58/139 43/43/140 45/45/141
f 54/54/142 59/59/143 58/58/144
f 60/99/145 37/84/146 31/31/147
f 31/31/148 33/96/149 60/99/150
f 45/45/151 60/60/152 57/57/153
f 60/60/154 45/45/155 37/37/156
f 52/52/157 60/60/158 33/97/159
f 33/97/160 55/98/161 52/52/162
f 61/61/163 62/116/164 63/115/165
f 61/61/166 64/82/167 62/116/168
f 65/65/169 66/66/170 67/67/171
f 14/14/172 8/8/173 65/65/174
f 63/115/175 68/113/176 67/67/177
f 12/12/178 14/14/179 67/67/180
f 50/50/181 47/47/182 69/69/183
f 50/50/184 69/69/185 10/114/186
f 10/114/187 11/11/188 51/51/189
f 10/114/190 51/51/191 50/50/192
f 70/93/193 71/71/194 72/72/195
f 70/93/196 48/94/197 71/71/198
f 71/71/199 48/94/200 59/59/201
f 59/59/202 49/49/203 58/58/204
f 28/79/205 73/73/206 26/26/207
f 34/34/208 74/74/209 56/56/210
f 56/56/211 55/55/212 34/34/213
f 17/120/214 75/75/215 76/80/216
f 75/75/217 77/77/218 74/74/219
f 68/68/220 75/75/221 13/13/222
f 13/13/223 12/122/224 68/68/225
f 5/5/226 1/1/227 3/3/228
f 5/5/229 3/3/230 16/90/231
f 5/5/232 16/90/233 22/22/234
f 5/5/235 22/22/236 6/6/237
f 7/7/238 2/2/239 9/118/240
f 13/121/241 15/15/242 7/7/243
f 14/14/244 12/12/245 9/9/246
f 15/15/247 3/3/248 7/7/249
f 16/90/250 15/15/251 17/17/252
f 19/19/253 21/21/254 27/27/255
f 25/25/256 20/105/257 19/19/258
f 6/6/259 25/104/260 24/109/261
f 6/6/262 22/22/263 20/20/264
f 18/18/265 28/28/266 27/27/267
f 21/21/268 22/91/269 16/16/270
f 18/18/271 27/27/272 21/21/273
f 27/27/274 26/88/275 29/29/276
f 26/88/277 32/32/278 29/29/279
f 32/89/280 26/26/281 34/34/282
f 19/19/283 27/27/284 30/30/285
f 66/66/286 72/87/287 64/82/288 61/61/289
f 35/85/290 31/31/291 37/84/292
f 24/109/293 40/40/294 38/38/295
f 24/24/296 41/41/297 40/110/298
f 24/24/299 23/23/300 41/41/301
f 42/108/302 44/44/303 40/40/304
f 43/43/305 42/83/306 37/37/307
f 42/42/308 36/36/309 37/84/310
f 38/38/311 40/40/312 44/44/313
f 46/46/314 44/101/315 43/43/316
f 43/43/317 49/49/318 46/46/319
f 43/43/320 58/58/321 49/49/322
f 59/59/323 48/94/324 49/49/325
f 39/39/326 38/38/327 51/51/328
f 39/39/329 51/51/330 11/11/331
f 11/11/332 1/1/333 4/4/334
f 47/47/335 48/48/336 69/69/337
f 54/54/338 53/81/339 78/78/340
f 64/64/341 78/78/342 53/81/343
f 57/57/344 52/52/345 54/54/346
f 54/54/347 78/78/348 59/59/349
f 58/58/350 57/57/351 54/54/352
f 60/60/353 52/52/354 57/57/355
f 55/55/356 33/33/357 34/34/358
f 31/86/359 32/32/360 33/95/361
f 61/61/362 67/67/363 66/66/364
f 61/61/365 63/115/366 67/67/367
f 78/78/368 64/64/369 72/72/370
f 53/53/371 62/62/372 64/111/373
f 65/65/374 67/67/375 14/14/376
f 67/67/377 68/113/378 12/12/379
f 66/66/380 65/65/381 69/106/382
f 69/106/383 70/70/384 66/66/385
f 70/107/386 69/69/387 48/48/388
f 65/65/389 8/8/390 10/10/391
f 10/10/392 69/106/393 65/65/394
f 72/87/395 66/66/396 70/70/397
f 72/72/398 71/71/399 59/59/400
f 59/59/401 78/78/402 72/72/403
f 74/74/404 77/77/405 56/56/406
f 31/86/407 35/35/408 30/30/409 29/29/410
f 77/77/411 63/63/412 62/62/413
f 62/62/414 56/56/415 77/77/416
f 56/56/417 62/62/418 53/53/419
f 74/74/420 73/73/421 76/80/422
f 28/79/423 76/80/424 73/73/425
f 73/73/426 34/34/427 26/26/428
f 34/34/429 73/73/430 74/74/431
f 76/80/432 75/75/433 74/74/434
f 17/120/435 13/13/436 75/75/437
f 17/17/438 15/15/439 13/121/440
f 28/28/441 18/18/442 76/76/443
f 18/18/444 17/92/445 76/76/446
f 63/63/447 77/77/448 75/75/449
f 63/63/450 75/75/451 68/68/452
